<svg width="69" height="63" viewBox="0 0 69 63" fill="none" xmlns="http://www.w3.org/2000/svg">
<circle cx="31.5" cy="31.5" r="31.5" fill="#0ECB37" fill-opacity="0.1"/>
<circle cx="31.5" cy="31.5" r="29.5" stroke="#0ECB37" stroke-opacity="0.25" stroke-width="4"/>
<rect x="3.88379" y="26.0547" width="15.1473" height="34.9759" rx="6" transform="rotate(-44.8407 3.88379 26.0547)" fill="#0ECB37"/>
<rect x="5.23584" y="26.0039" width="13.2318" height="3.99845" rx="1.99922" transform="rotate(-44.8407 5.23584 26.0039)" fill="#06BD2D"/>
<rect x="53.2236" y="5.45703" width="6.89402" height="1.08141" rx="0.540707" fill="#0ECB37"/>
<rect x="58.9009" y="12.2422" width="6.89402" height="1.35177" rx="0.675884" fill="#0ECB37"/>
<rect x="43.626" y="31.0039" width="6.89402" height="0.946237" rx="0.473119" fill="#0ECB37"/>
<rect x="53.2236" y="7.61719" width="9.59755" height="1.08141" rx="0.540707" fill="#0ECB37"/>
<rect x="58.9009" y="15.0781" width="9.59755" height="1.35177" rx="0.675884" fill="#0ECB37"/>
<rect x="43.626" y="33.1641" width="9.59755" height="0.946237" rx="0.473119" fill="#0ECB37"/>
<rect x="51.4658" y="6.26562" width="6.89402" height="1.62212" rx="0.811061" fill="#0ECB37"/>
<rect x="57.1436" y="13.3203" width="6.89402" height="2.02765" rx="1.01383" fill="#0ECB37"/>
<rect x="41.8687" y="31.8164" width="6.89402" height="1.48694" rx="0.743472" fill="#0ECB37"/>
<rect x="28.4819" y="50.7109" width="15.1473" height="50.5703" rx="6" transform="rotate(-134.833 28.4819 50.7109)" fill="#0ECB37"/>
<rect x="28.8916" y="30.7344" width="35.4245" height="3.99845" rx="1.99922" transform="rotate(-44.8407 28.8916 30.7344)" fill="#06BD2D"/>
<rect x="44.5601" y="17.6211" width="6.59556" height="0.901179" rx="0.450589" fill="#06BD2D"/>
<rect x="44.5601" y="19.4219" width="4.53444" height="0.901179" rx="0.450589" fill="#06BD2D"/>
<rect x="49.7129" y="19.4219" width="3.91611" height="0.901179" rx="0.450589" fill="#06BD2D"/>
<rect x="43.1509" y="18.125" width="4.74658" height="1.72603" rx="0.863014" fill="#06BD2D"/>
<rect x="10.7881" y="22.8672" width="4.74658" height="0.863014" rx="0.431507" fill="#06BD2D"/>
<rect x="10.7881" y="24.5938" width="3.45205" height="0.863014" rx="0.431507" fill="#06BD2D"/>
<rect x="7.57227" y="30.2031" width="7.53774" height="0.901179" rx="0.450589" fill="#53F476"/>
<rect x="7.521" y="32.0039" width="6.41093" height="0.863014" rx="0.431507" fill="#53F476"/>
<rect x="14.918" y="32.0039" width="1.47945" height="0.863014" rx="0.431507" fill="#53F476"/>
<rect x="6.0415" y="30.8789" width="6.00664" height="1.35177" rx="0.675884" fill="#53F476"/>
</svg>
