<svg width="21" height="21" viewBox="0 0 21 21" fill="none" xmlns="http://www.w3.org/2000/svg">
<path d="M1.45752 1.25L3.53197 1.61L4.4924 13.083C4.5692 14.02 5.35011 14.739 6.2876 14.736H17.1675C18.0621 14.738 18.8211 14.078 18.9478 13.19L19.8942 6.632C19.9999 5.899 19.4923 5.219 18.7622 5.113C18.6984 5.104 3.86508 5.099 3.86508 5.099" stroke="#FFF600" stroke-width="1.5" stroke-linecap="round" stroke-linejoin="round"/>
<path d="M12.8022 8.79297H15.5679" stroke="#FFF600" stroke-width="1.5" stroke-linecap="round" stroke-linejoin="round"/>
<path fill-rule="evenodd" clip-rule="evenodd" d="M5.85004 18.2031C6.15024 18.2031 6.39259 18.4471 6.39259 18.7471C6.39259 19.0481 6.15024 19.2921 5.85004 19.2921C5.54985 19.2921 5.3075 19.0481 5.3075 18.7471C5.3075 18.4471 5.54985 18.2031 5.85004 18.2031Z" fill="#FFF600" stroke="#FFF600" stroke-width="1.5" stroke-linecap="round" stroke-linejoin="round"/>
<path fill-rule="evenodd" clip-rule="evenodd" d="M17.1003 18.2031C17.4005 18.2031 17.6438 18.4471 17.6438 18.7471C17.6438 19.0481 17.4005 19.2921 17.1003 19.2921C16.8001 19.2921 16.5577 19.0481 16.5577 18.7471C16.5577 18.4471 16.8001 18.2031 17.1003 18.2031Z" fill="#FFF600" stroke="#FFF600" stroke-width="1.5" stroke-linecap="round" stroke-linejoin="round"/>
</svg>
