<svg width="16" height="16" viewBox="0 0 16 16" fill="none" xmlns="http://www.w3.org/2000/svg">
<path d="M8 0C3.57837 0 0 3.57803 0 8C0 12.4217 3.57803 16 8 16C12.4216 16 16 12.422 16 8C16 3.57834 12.422 0 8 0ZM8 14.75C4.26925 14.75 1.25 11.731 1.25 8C1.25 4.26922 4.26897 1.25 8 1.25C11.7308 1.25 14.75 4.26897 14.75 8C14.75 11.7308 11.731 14.75 8 14.75Z" fill="#A1A1A6"/>
<path d="M10.7367 9.85145L8.88348 7.99826L10.7367 6.14507C10.9807 5.90101 10.9808 5.50529 10.7367 5.2612C10.4926 5.0171 10.0969 5.01713 9.85282 5.2612L7.99961 7.11438L6.1464 5.2612C5.90236 5.0171 5.50658 5.0171 5.26252 5.2612C5.01846 5.50529 5.01846 5.90101 5.26255 6.14507L7.11574 7.99826L5.26255 9.85145C5.01846 10.0955 5.01843 10.4913 5.26252 10.7353C5.50668 10.9794 5.9024 10.9794 6.1464 10.7353L7.99961 8.88213L9.85282 10.7353C10.0968 10.9794 10.4926 10.9794 10.7367 10.7353C10.9808 10.4912 10.9808 10.0955 10.7367 9.85145Z" fill="#A1A1A6"/>
</svg>
