<svg width="19" height="19" viewBox="0 0 19 19" fill="none" xmlns="http://www.w3.org/2000/svg">
<path d="M15.9879 0.0117188L18.9881 3.01202L16.7013 5.29877L13.7011 2.29846L15.9879 0.0117188Z" fill="#25A446"/>
<path d="M5 14.0018H8L15.287 6.71484L12.287 3.71484L5 11.0018V14.0018Z" fill="white"/>
<path d="M16 17H5.158C5.132 17 5.105 17.01 5.079 17.01C5.046 17.01 5.013 17.001 4.979 17H2V3H8.847L10.847 1H2C0.897 1 0 1.896 0 3V17C0 18.104 0.897 19 2 19H16C17.104 19 18 18.104 18 17V8.332L16 10.332V17Z" fill="white"/>
</svg>
