<svg width="26" height="26" viewBox="0 0 26 26" fill="none" xmlns="http://www.w3.org/2000/svg">
<path d="M13 2.33594H0V19.0938H13H21.3789V2.33594H13Z" fill="#298E2F"/>
<path d="M13 2.33594H21.3789V19.0938H13V2.33594Z" fill="#34A73B"/>
<path d="M26 6.90625H13.7617L13 8.36814L12.9679 8.42969L12.2383 6.90625H4.62109V13L6.14453 13.7938L4.62109 14.5234V23.6641H12.2383L13 22.2988L13.0883 22.1406L13.7617 23.6641H26V14.5234L24.4766 13.7216L26 13V6.90625Z" fill="#FFE680"/>
<path d="M13.7617 23.6641H26V14.5234L24.4766 13.7216L26 13V6.90625H13.7617L13 8.36814V22.2988L13.0883 22.1406L13.7617 23.6641Z" fill="#FFC550"/>
<path d="M18.332 19.0938H22.9023V20.6172H18.332V19.0938Z" fill="#EDF5FF"/>
<path d="M18.332 16.0469H22.9023V17.5703H18.332V16.0469Z" fill="#EDF5FF"/>
<path d="M16.0469 13H26V14.5234H16.0469V13Z" fill="#D0004F"/>
<path d="M4.62109 13H9.95312V14.5234H4.62109V13Z" fill="#FF435B"/>
<path d="M13 6.90625H12.2383V23.6641H13H13.7617V6.90625H13Z" fill="#FF435B"/>
<path d="M13 6.90625H13.7617V23.6641H13V6.90625Z" fill="#D0004F"/>
<path d="M16.0469 9.95312C15.3313 9.95312 14.6476 10.2946 14.2177 10.8673V10.8681L13 12.4924L12.9999 12.4925L11.7818 10.8685L11.7823 10.8681C11.3531 10.2953 10.6694 9.95312 9.95312 9.95312C8.69304 9.95312 7.66797 10.9782 7.66797 12.2383C7.66797 13.4984 8.69304 14.5234 9.95312 14.5234H11.1612L10.1763 15.5083L11.2534 16.5855L13 14.8388L14.7466 16.5855L15.8237 15.5083L14.8388 14.5234H16.0469C17.307 14.5234 18.332 13.4984 18.332 12.2383C18.332 10.9782 17.307 9.95312 16.0469 9.95312ZM9.95312 13C9.53286 13 9.19141 12.6585 9.19141 12.2383C9.19141 11.5755 10.1651 11.2504 10.5623 11.7816H10.5631L11.4769 13H9.95312ZM16.0469 13H14.5227L15.4358 11.782L15.4361 11.7823C15.582 11.5881 15.8044 11.4766 16.0469 11.4766C16.4671 11.4766 16.8086 11.818 16.8086 12.2383C16.8086 12.6585 16.4671 13 16.0469 13Z" fill="#FF7B4A"/>
<path d="M15.8237 15.5083L14.8388 14.5234H16.0469C17.307 14.5234 18.332 13.4984 18.332 12.2383C18.332 10.9782 17.307 9.95312 16.0469 9.95312C15.3313 9.95312 14.6476 10.2946 14.2177 10.8673V10.8681L13 12.4924V14.8388L14.7466 16.5855L15.8237 15.5083ZM15.4358 11.782L15.4361 11.7823C15.582 11.5881 15.8044 11.4766 16.0469 11.4766C16.4671 11.4766 16.8086 11.818 16.8086 12.2383C16.8086 12.6585 16.4671 13 16.0469 13H14.5227L15.4358 11.782Z" fill="#FF435B"/>
</svg>
