<svg width="35" height="34" viewBox="0 0 35 34" fill="none" xmlns="http://www.w3.org/2000/svg">
<g clip-path="url(#clip0)">
<path d="M34.4557 17.0008C34.4557 22.6135 29.9344 27.2008 24.2829 27.2008C18.6852 27.2008 14.1101 22.6135 14.1101 17.0008C14.1101 11.3881 18.6313 6.80078 24.2291 6.80078C29.9344 6.80078 34.4557 11.3881 34.4557 17.0008Z" fill="#FFB600"/>
<path d="M24.2829 6.80078C29.8806 6.80078 34.4557 11.3881 34.4557 17.0008C34.4557 22.6135 29.9344 27.2008 24.2829 27.2008C18.6852 27.2008 14.1101 22.6135 14.1101 17.0008" fill="#F7981D"/>
<path d="M24.2832 6.80078C29.8809 6.80078 34.456 11.3881 34.456 17.0008C34.456 22.6135 29.9348 27.2008 24.2832 27.2008" fill="#FF8500"/>
<path d="M10.6118 6.80078C5.06788 6.85475 0.546631 11.3881 0.546631 17.0008C0.546631 22.6135 5.06787 27.2008 10.7194 27.2008C13.3568 27.2008 15.7251 26.1754 17.5551 24.5563C17.9319 24.2325 18.2548 23.8547 18.5778 23.477H16.4786C16.2095 23.1531 15.9404 22.7754 15.7251 22.4516H19.3313C19.5466 22.1277 19.7619 21.75 19.9234 21.3722H15.133C14.9716 21.0484 14.8101 20.6706 14.7024 20.2928H20.3002C20.6231 19.2674 20.8384 18.1881 20.8384 17.0547C20.8384 16.2992 20.7308 15.5976 20.6231 14.896H14.3795C14.4333 14.5182 14.541 14.1944 14.6486 13.8166H20.2463C20.1387 13.4389 19.9772 13.0611 19.8157 12.7373H15.0792C15.2407 12.3595 15.456 12.0357 15.6713 11.6579H19.2775C19.0622 11.2801 18.7931 10.9024 18.4701 10.5786H16.4786C16.8016 10.2008 17.1245 9.87697 17.5013 9.55316C15.7251 7.88015 13.303 6.90872 10.6656 6.90872C10.6656 6.80078 10.6656 6.80078 10.6118 6.80078Z" fill="#FF5050"/>
<path d="M0.546631 16.9983C0.546631 22.611 5.06787 27.1983 10.7194 27.1983C13.3568 27.1983 15.7251 26.1729 17.5551 24.5539C17.9319 24.2301 18.2548 23.8523 18.5778 23.4745H16.4786C16.2095 23.1507 15.9404 22.7729 15.7251 22.4491H19.3313C19.5466 22.1253 19.7619 21.7475 19.9234 21.3697H15.133C14.9716 21.0459 14.8101 20.6682 14.7024 20.2904H20.3002C20.6231 19.265 20.8384 18.1856 20.8384 17.0523C20.8384 16.2967 20.7308 15.5951 20.6231 14.8936H14.3795C14.4333 14.5158 14.541 14.192 14.6486 13.8142H20.2463C20.1387 13.4364 19.9772 13.0586 19.8157 12.7348H15.0792C15.2407 12.357 15.456 12.0332 15.6713 11.6555H19.2775C19.0622 11.2777 18.7931 10.8999 18.4701 10.5761H16.4786C16.8016 10.1983 17.1245 9.87451 17.5013 9.5507C15.7251 7.87768 13.303 6.90625 10.6656 6.90625H10.6118" fill="#E52836"/>
<path d="M10.7195 27.1983C13.3569 27.1983 15.7251 26.1729 17.5552 24.5539C17.9319 24.2301 18.2549 23.8523 18.5778 23.4745H16.4787C16.2095 23.1507 15.9404 22.7729 15.7251 22.4491H19.3314C19.5467 22.1253 19.762 21.7475 19.9234 21.3697H15.1331C14.9716 21.0459 14.8101 20.6682 14.7025 20.2904H20.3002C20.6231 19.265 20.8384 18.1856 20.8384 17.0523C20.8384 16.2967 20.7308 15.5951 20.6231 14.8936H14.3795C14.4333 14.5158 14.541 14.192 14.6486 13.8142H20.2464C20.1387 13.4364 19.9772 13.0586 19.8158 12.7348H15.0792C15.2407 12.357 15.456 12.0332 15.6713 11.6555H19.2775C19.0622 11.2777 18.7931 10.8999 18.4702 10.5761H16.4787C16.8016 10.1983 17.1246 9.87451 17.5013 9.5507C15.7251 7.87768 13.303 6.90625 10.6656 6.90625H10.6118" fill="#CB2026"/>
<path d="M14.3256 19.589L14.487 18.6716C14.4332 18.6716 14.3256 18.7256 14.2179 18.7256C13.8411 18.7256 13.7873 18.5097 13.8411 18.4017L14.1641 16.5129H14.7561L14.9176 15.4875H14.3794L14.487 14.8398H13.4105C13.4105 14.8398 12.7646 18.4017 12.7646 18.8335C12.7646 19.4811 13.1414 19.751 13.6258 19.751C13.9488 19.751 14.2179 19.643 14.3256 19.589Z" fill="white"/>
<path d="M14.7024 17.8651C14.7024 19.3762 15.7251 19.754 16.5862 19.754C17.3936 19.754 17.7166 19.5921 17.7166 19.5921L17.9319 18.5667C17.9319 18.5667 17.3398 18.8365 16.8015 18.8365C15.6174 18.8365 15.8327 17.973 15.8327 17.973H18.0395C18.0395 17.973 18.201 17.2714 18.201 17.0016C18.201 16.3 17.8242 15.4365 16.6401 15.4365C15.5098 15.3286 14.7024 16.5159 14.7024 17.8651ZM16.5862 16.3C17.1783 16.3 17.0707 17.0016 17.0707 17.0556H15.8865C15.8865 17.0016 15.9942 16.3 16.5862 16.3Z" fill="white"/>
<path d="M23.4218 19.5904L23.6371 18.4031C23.6371 18.4031 23.0988 18.6729 22.722 18.6729C21.9685 18.6729 21.6456 18.0793 21.6456 17.4317C21.6456 16.1364 22.2915 15.4348 23.045 15.4348C23.5832 15.4348 24.0138 15.7586 24.0138 15.7586L24.1753 14.6253C24.1753 14.6253 23.5294 14.3555 22.9373 14.3555C21.6994 14.3555 20.4614 15.4348 20.4614 17.4856C20.4614 18.8348 21.1073 19.7523 22.3991 19.7523C22.8297 19.7523 23.4218 19.5904 23.4218 19.5904Z" fill="white"/>
<path d="M8.40506 15.3281C7.65152 15.3281 7.11328 15.544 7.11328 15.544L6.95181 16.4615C6.95181 16.4615 7.43622 16.2456 8.13594 16.2456C8.51271 16.2456 8.83565 16.2996 8.83565 16.6234C8.83565 16.8392 8.78183 16.8932 8.78183 16.8932C8.78183 16.8932 8.45888 16.8932 8.29741 16.8932C7.3824 16.8932 6.35974 17.271 6.35974 18.5123C6.35974 19.4837 7.00563 19.6996 7.3824 19.6996C8.13594 19.6996 8.45888 19.2138 8.51271 19.2138L8.45888 19.6456H9.42772L9.85831 16.6773C9.85831 15.3821 8.78183 15.3281 8.40506 15.3281ZM8.62036 17.7567C8.62036 17.9186 8.51271 18.7821 7.86682 18.7821C7.54387 18.7821 7.43622 18.5123 7.43622 18.3503C7.43622 18.0805 7.5977 17.7027 8.40506 17.7027C8.56653 17.7567 8.62036 17.7567 8.62036 17.7567Z" fill="white"/>
<path d="M10.8814 19.6988C11.1505 19.6988 12.4961 19.7528 12.4961 18.2957C12.4961 16.9465 11.2043 17.2163 11.2043 16.6766C11.2043 16.4068 11.4196 16.2988 11.7964 16.2988C11.9579 16.2988 12.5499 16.3528 12.5499 16.3528L12.7114 15.3814C12.7114 15.3814 12.3346 15.2734 11.6888 15.2734C10.8814 15.2734 10.074 15.5972 10.074 16.6766C10.074 17.9179 11.4196 17.8099 11.4196 18.2957C11.4196 18.6195 11.0429 18.6734 10.7737 18.6734C10.2893 18.6734 9.80491 18.5115 9.80491 18.5115L9.64343 19.483C9.69726 19.5909 9.96638 19.6988 10.8814 19.6988Z" fill="white"/>
<path d="M32.3571 14.4648L32.1418 15.922C32.1418 15.922 31.7112 15.3823 31.1191 15.3823C30.1503 15.3823 29.2891 16.5696 29.2891 17.9728C29.2891 18.8363 29.7197 19.7537 30.6347 19.7537C31.2806 19.7537 31.6573 19.322 31.6573 19.322L31.6035 19.6998H32.68L33.4874 14.5188L32.3571 14.4648ZM31.8726 17.3252C31.8726 17.9188 31.6035 18.6744 31.0114 18.6744C30.6347 18.6744 30.4194 18.3506 30.4194 17.8109C30.4194 16.9474 30.7961 16.4077 31.2806 16.4077C31.6573 16.4077 31.8726 16.6775 31.8726 17.3252Z" fill="white"/>
<path d="M2.53817 19.6458L3.18406 15.7601L3.29171 19.6458H4.04525L5.44468 15.7601L4.85261 19.6458H5.98292L6.84411 14.4648H5.06791L3.99142 17.649L3.9376 14.4648H2.37669L1.5155 19.6458H2.53817Z" fill="white"/>
<path d="M19.2237 19.6431C19.5466 17.8622 19.6005 16.405 20.354 16.6749C20.4616 15.9733 20.6231 15.7034 20.7308 15.4336C20.7308 15.4336 20.6769 15.4336 20.5155 15.4336C20.031 15.4336 19.6543 16.0812 19.6543 16.0812L19.7619 15.4876H18.7393L18.0396 19.6971H19.2237V19.6431Z" fill="white"/>
<path d="M25.898 15.3281C25.1444 15.3281 24.6062 15.544 24.6062 15.544L24.4447 16.4615C24.4447 16.4615 24.9291 16.2456 25.6289 16.2456C26.0056 16.2456 26.3286 16.2996 26.3286 16.6234C26.3286 16.8392 26.2748 16.8932 26.2748 16.8932C26.2748 16.8932 25.9518 16.8932 25.7903 16.8932C24.8753 16.8932 23.8527 17.271 23.8527 18.5123C23.8527 19.4837 24.4986 19.6996 24.8753 19.6996C25.6289 19.6996 25.9518 19.2138 26.0056 19.2138L25.9518 19.6456H26.9207L27.3512 16.6773C27.4051 15.3821 26.2748 15.3281 25.898 15.3281ZM26.1671 17.7567C26.1671 17.9186 26.0595 18.7821 25.4136 18.7821C25.0906 18.7821 24.983 18.5123 24.983 18.3503C24.983 18.0805 25.1444 17.7027 25.9518 17.7027C26.1133 17.7567 26.1133 17.7567 26.1671 17.7567Z" fill="white"/>
<path d="M28.2664 19.6431C28.5894 17.8622 28.6432 16.405 29.3967 16.6749C29.5044 15.9733 29.6658 15.7034 29.7735 15.4336C29.7735 15.4336 29.7197 15.4336 29.5582 15.4336C29.0738 15.4336 28.697 16.0812 28.697 16.0812L28.8047 15.4876H27.782L27.0823 19.6971H28.2664V19.6431Z" fill="white"/>
<path d="M12.6571 18.8335C12.6571 19.4811 13.0339 19.751 13.5183 19.751C13.8951 19.751 14.218 19.643 14.3257 19.589L14.4871 18.6716C14.4333 18.6716 14.3257 18.7256 14.218 18.7256C13.8412 18.7256 13.7874 18.5097 13.8412 18.4017L14.1642 16.5129H14.7563L14.9177 15.4875H14.3795L14.4871 14.8398" fill="#DCE5E5"/>
<path d="M15.2405 17.8651C15.2405 19.3762 15.7249 19.754 16.5861 19.754C17.3935 19.754 17.7164 19.5921 17.7164 19.5921L17.9317 18.5667C17.9317 18.5667 17.3396 18.8365 16.8014 18.8365C15.6172 18.8365 15.8325 17.973 15.8325 17.973H18.0393C18.0393 17.973 18.2008 17.2714 18.2008 17.0016C18.2008 16.3 17.824 15.4365 16.6399 15.4365C15.5096 15.3286 15.2405 16.5159 15.2405 17.8651ZM16.5861 16.3C17.1782 16.3 17.2858 17.0016 17.2858 17.0556H15.8864C15.8864 17.0016 15.994 16.3 16.5861 16.3Z" fill="#DCE5E5"/>
<path d="M23.4217 19.5904L23.637 18.4031C23.637 18.4031 23.0988 18.6729 22.722 18.6729C21.9685 18.6729 21.6455 18.0793 21.6455 17.4317C21.6455 16.1364 22.2914 15.4348 23.045 15.4348C23.5832 15.4348 24.0138 15.7586 24.0138 15.7586L24.1753 14.6253C24.1753 14.6253 23.5294 14.3555 22.9373 14.3555C21.6993 14.3555 20.9996 15.4348 20.9996 17.4856C20.9996 18.8348 21.1073 19.7523 22.3991 19.7523C22.8297 19.7523 23.4217 19.5904 23.4217 19.5904Z" fill="#DCE5E5"/>
<path d="M6.95181 16.513C6.95181 16.513 7.43622 16.2971 8.13594 16.2971C8.51271 16.2971 8.83565 16.3511 8.83565 16.6749C8.83565 16.8907 8.78183 16.9447 8.78183 16.9447C8.78183 16.9447 8.45888 16.9447 8.29741 16.9447C7.3824 16.9447 6.35974 17.3225 6.35974 18.5638C6.35974 19.5352 7.00563 19.7511 7.3824 19.7511C8.13594 19.7511 8.45888 19.2653 8.51271 19.2653L8.45888 19.6971H9.42772L9.85831 16.7288C9.85831 15.4876 8.78183 15.4336 8.35124 15.4336L6.95181 16.513ZM9.1586 17.7542C9.1586 17.9161 8.51271 18.7796 7.86682 18.7796C7.54387 18.7796 7.43622 18.5098 7.43622 18.3479C7.43622 18.078 7.5977 17.7003 8.40506 17.7003C8.56653 17.7542 9.1586 17.7542 9.1586 17.7542Z" fill="#DCE5E5"/>
<path d="M9.69653 19.5909C9.69653 19.5909 10.0195 19.6988 10.9345 19.6988C11.2036 19.6988 12.5492 19.7528 12.5492 18.2957C12.5492 16.9465 11.2574 17.2163 11.2574 16.6766C11.2574 16.4068 11.4727 16.2988 11.8495 16.2988C12.011 16.2988 12.603 16.3528 12.603 16.3528L12.7645 15.3814C12.7645 15.3814 12.3878 15.2734 11.7419 15.2734C10.9345 15.2734 10.6654 15.5972 10.6654 16.6766C10.6654 17.9179 11.4727 17.8099 11.4727 18.2957C11.4727 18.6195 11.096 18.6734 10.8268 18.6734" fill="#DCE5E5"/>
<path d="M32.1412 15.9188C32.1412 15.9188 31.7106 15.3791 31.1186 15.3791C30.1497 15.3791 29.8268 16.5664 29.8268 17.9696C29.8268 18.8331 29.7191 19.7505 30.6341 19.7505C31.28 19.7505 31.6568 19.3188 31.6568 19.3188L31.603 19.6966H32.6795L33.4868 14.5156L32.1412 15.9188ZM32.0874 17.322C32.0874 17.9156 31.603 18.6712 31.0109 18.6712C30.6341 18.6712 30.4188 18.3474 30.4188 17.8077C30.4188 16.9442 30.7956 16.4045 31.28 16.4045C31.6568 16.4045 32.0874 16.6744 32.0874 17.322Z" fill="#DCE5E5"/>
<path d="M2.53817 19.6458L3.18406 15.7601L3.29171 19.6458H4.04525L5.44468 15.7601L4.85261 19.6458H5.98292L6.84411 14.4648H5.4985L3.99142 17.649L3.9376 14.4648H3.34553L1.5155 19.6458H2.53817Z" fill="#DCE5E5"/>
<path d="M18.0935 19.6431H19.2238C19.5468 17.8622 19.6006 16.405 20.3541 16.6749C20.4618 15.9733 20.6233 15.7034 20.7309 15.4336C20.7309 15.4336 20.6771 15.4336 20.5156 15.4336C20.0312 15.4336 19.6544 16.0812 19.6544 16.0812L19.7621 15.4876" fill="#DCE5E5"/>
<path d="M24.4447 16.513C24.4447 16.513 24.9291 16.2971 25.6289 16.2971C26.0056 16.2971 26.3286 16.3511 26.3286 16.6749C26.3286 16.8907 26.2748 16.9447 26.2748 16.9447C26.2748 16.9447 25.9518 16.9447 25.7903 16.9447C24.8753 16.9447 23.8527 17.3225 23.8527 18.5638C23.8527 19.5352 24.4986 19.7511 24.8753 19.7511C25.6289 19.7511 25.9518 19.2653 26.0056 19.2653L25.9518 19.6971H26.9206L27.3512 16.7288C27.3512 15.4876 26.2748 15.4336 25.8442 15.4336L24.4447 16.513ZM26.6515 17.7542C26.6515 17.9161 26.0056 18.7796 25.3597 18.7796C25.0368 18.7796 24.9291 18.5098 24.9291 18.3479C24.9291 18.078 25.0906 17.7003 25.898 17.7003C26.1133 17.7542 26.6515 17.7542 26.6515 17.7542Z" fill="#DCE5E5"/>
<path d="M27.1362 19.6431H28.2665C28.5895 17.8622 28.6433 16.405 29.3969 16.6749C29.5045 15.9733 29.666 15.7034 29.7736 15.4336C29.7736 15.4336 29.7198 15.4336 29.5583 15.4336C29.0739 15.4336 28.6971 16.0812 28.6971 16.0812L28.8048 15.4876" fill="#DCE5E5"/>
</g>
<defs>
<clipPath id="clip0">
<rect width="33.9093" height="34" fill="white" transform="translate(0.546631)"/>
</clipPath>
</defs>
</svg>
