<svg width="34" height="34" viewBox="0 0 34 34" fill="none" xmlns="http://www.w3.org/2000/svg">
<g clip-path="url(#clip0)">
<path d="M33.9996 16.9998C33.9996 22.6125 29.4662 27.1998 23.7996 27.1998C18.1869 27.1998 13.5996 22.6125 13.5996 16.9998C13.5996 11.3871 18.1329 6.7998 23.7456 6.7998C29.4662 6.7998 33.9996 11.3871 33.9996 16.9998Z" fill="#FFB600"/>
<path d="M23.7996 6.7998C29.4123 6.7998 33.9996 11.3871 33.9996 16.9998C33.9996 22.6125 29.4662 27.1998 23.7996 27.1998C18.1869 27.1998 13.5996 22.6125 13.5996 16.9998" fill="#F7981D"/>
<path d="M23.7998 6.7998C29.4125 6.7998 33.9998 11.3871 33.9998 16.9998C33.9998 22.6125 29.4665 27.1998 23.7998 27.1998" fill="#FF8500"/>
<path d="M10.0921 6.7998C4.53333 6.85377 0 11.3871 0 16.9998C0 22.6125 4.53333 27.1998 10.2 27.1998C12.8444 27.1998 15.219 26.1744 17.054 24.5553C17.4317 24.2315 17.7556 23.8538 18.0794 23.476H15.9746C15.7048 23.1522 15.4349 22.7744 15.219 22.4506H18.8349C19.0508 22.1268 19.2667 21.749 19.4286 21.3712H14.6254C14.4635 21.0474 14.3016 20.6696 14.1936 20.2919H19.8063C20.1302 19.2665 20.346 18.1871 20.346 17.0538C20.346 16.2982 20.2381 15.5966 20.1302 14.895H13.8698C13.9238 14.5173 14.0317 14.1934 14.1397 13.8157H19.7524C19.6444 13.4379 19.4825 13.0601 19.3206 12.7363H14.5714C14.7333 12.3585 14.9492 12.0347 15.1651 11.6569H18.781C18.5651 11.2792 18.2952 10.9014 17.9714 10.5776H15.9746C16.2984 10.1998 16.6222 9.87599 17 9.55218C15.219 7.87917 12.7905 6.90774 10.146 6.90774C10.146 6.7998 10.146 6.7998 10.0921 6.7998Z" fill="#FF5050"/>
<path d="M0 16.9998C0 22.6125 4.53333 27.1998 10.2 27.1998C12.8444 27.1998 15.219 26.1744 17.054 24.5553C17.4317 24.2315 17.7556 23.8538 18.0794 23.476H15.9746C15.7048 23.1522 15.4349 22.7744 15.219 22.4506H18.8349C19.0508 22.1268 19.2667 21.749 19.4286 21.3712H14.6254C14.4635 21.0474 14.3016 20.6696 14.1936 20.2918H19.8063C20.1302 19.2665 20.346 18.1871 20.346 17.0538C20.346 16.2982 20.2381 15.5966 20.1302 14.895H13.8698C13.9238 14.5172 14.0317 14.1934 14.1397 13.8157H19.7524C19.6444 13.4379 19.4825 13.0601 19.3206 12.7363H14.5714C14.7333 12.3585 14.9492 12.0347 15.1651 11.6569H18.781C18.5651 11.2791 18.2952 10.9014 17.9714 10.5776H15.9746C16.2984 10.1998 16.6222 9.87597 17 9.55216C15.219 7.87914 12.7905 6.90771 10.146 6.90771H10.0921" fill="#E52836"/>
<path d="M10.1997 27.1998C12.8442 27.1998 15.2188 26.1744 17.0537 24.5553C17.4315 24.2315 17.7553 23.8538 18.0791 23.476H15.9743C15.7045 23.1522 15.4347 22.7744 15.2188 22.4506H18.8347C19.0505 22.1268 19.2664 21.749 19.4283 21.3712H14.6251C14.4632 21.0474 14.3013 20.6696 14.1934 20.2918H19.8061C20.1299 19.2665 20.3458 18.1871 20.3458 17.0538C20.3458 16.2982 20.2378 15.5966 20.1299 14.895H13.8696C13.9235 14.5172 14.0315 14.1934 14.1394 13.8157H19.7521C19.6442 13.4379 19.4823 13.0601 19.3204 12.7363H14.5712C14.7331 12.3585 14.9489 12.0347 15.1648 11.6569H18.7807C18.5648 11.2791 18.295 10.9014 17.9712 10.5776H15.9743C16.2981 10.1998 16.622 9.87597 16.9997 9.55216C15.2188 7.87914 12.7902 6.90771 10.1458 6.90771H10.0918" fill="#CB2026"/>
<path d="M13.8161 19.5905L13.978 18.6731C13.924 18.6731 13.8161 18.727 13.7081 18.727C13.3303 18.727 13.2764 18.5111 13.3303 18.4032L13.6541 16.5143H14.2478L14.4097 15.4889H13.87L13.978 14.8413H12.8986C12.8986 14.8413 12.251 18.4032 12.251 18.835C12.251 19.4826 12.6288 19.7524 13.1145 19.7524C13.4383 19.7524 13.7081 19.6445 13.8161 19.5905Z" fill="white"/>
<path d="M14.1934 17.8636C14.1934 19.3747 15.2188 19.7525 16.0822 19.7525C16.8918 19.7525 17.2156 19.5906 17.2156 19.5906L17.4315 18.5652C17.4315 18.5652 16.8378 18.835 16.2981 18.835C15.1108 18.835 15.3267 17.9716 15.3267 17.9716H17.5394C17.5394 17.9716 17.7013 17.27 17.7013 17.0001C17.7013 16.2985 17.3235 15.4351 16.1362 15.4351C15.0029 15.3271 14.1934 16.5144 14.1934 17.8636ZM16.0822 16.2985C16.6759 16.2985 16.568 17.0001 16.568 17.0541H15.3807C15.3807 17.0001 15.4886 16.2985 16.0822 16.2985Z" fill="white"/>
<path d="M22.937 19.5904L23.1529 18.4031C23.1529 18.4031 22.6132 18.6729 22.2354 18.6729C21.4799 18.6729 21.1561 18.0793 21.1561 17.4317C21.1561 16.1364 21.8037 15.4348 22.5592 15.4348C23.0989 15.4348 23.5307 15.7586 23.5307 15.7586L23.6926 14.6253C23.6926 14.6253 23.0449 14.3555 22.4513 14.3555C21.21 14.3555 19.9688 15.4348 19.9688 17.4856C19.9688 18.8348 20.6164 19.7523 21.9116 19.7523C22.3434 19.7523 22.937 19.5904 22.937 19.5904Z" fill="white"/>
<path d="M7.87989 15.3267C7.12434 15.3267 6.58465 15.5425 6.58465 15.5425L6.42275 16.46C6.42275 16.46 6.90846 16.2441 7.61005 16.2441C7.98782 16.2441 8.31163 16.2981 8.31163 16.6219C8.31163 16.8378 8.25767 16.8917 8.25767 16.8917C8.25767 16.8917 7.93386 16.8917 7.77195 16.8917C6.85449 16.8917 5.8291 17.2695 5.8291 18.5108C5.8291 19.4822 6.47672 19.6981 6.85449 19.6981C7.61005 19.6981 7.93386 19.2124 7.98782 19.2124L7.93386 19.6441H8.90528L9.33703 16.6759C9.33703 15.3806 8.25767 15.3267 7.87989 15.3267ZM8.09576 17.7552C8.09576 17.9171 7.98782 18.7806 7.34021 18.7806C7.0164 18.7806 6.90846 18.5108 6.90846 18.3489C6.90846 18.079 7.07037 17.7013 7.87989 17.7013C8.04179 17.7552 8.09576 17.7552 8.09576 17.7552Z" fill="white"/>
<path d="M10.3624 19.6983C10.6322 19.6983 11.9814 19.7523 11.9814 18.2952C11.9814 16.946 10.6862 17.2158 10.6862 16.6761C10.6862 16.4063 10.902 16.2983 11.2798 16.2983C11.4417 16.2983 12.0354 16.3523 12.0354 16.3523L12.1973 15.3809C12.1973 15.3809 11.8195 15.2729 11.1719 15.2729C10.3624 15.2729 9.55284 15.5968 9.55284 16.6761C9.55284 17.9174 10.902 17.8095 10.902 18.2952C10.902 18.619 10.5243 18.6729 10.2544 18.6729C9.76871 18.6729 9.283 18.511 9.283 18.511L9.12109 19.4825C9.17506 19.5904 9.4449 19.6983 10.3624 19.6983Z" fill="white"/>
<path d="M31.8955 14.4634L31.6797 15.9205C31.6797 15.9205 31.2479 15.3808 30.6543 15.3808C29.6828 15.3808 28.8193 16.5681 28.8193 17.9713C28.8193 18.8348 29.2511 19.7523 30.1685 19.7523C30.8162 19.7523 31.1939 19.3205 31.1939 19.3205L31.14 19.6983H32.2193L33.0289 14.5173L31.8955 14.4634ZM31.4098 17.3237C31.4098 17.9173 31.14 18.6729 30.5463 18.6729C30.1685 18.6729 29.9527 18.3491 29.9527 17.8094C29.9527 16.9459 30.3304 16.4062 30.8162 16.4062C31.1939 16.4062 31.4098 16.6761 31.4098 17.3237Z" fill="white"/>
<path d="M1.99708 19.6443L2.6447 15.7586L2.75263 19.6443H3.50819L4.91136 15.7586L4.31771 19.6443H5.45105L6.31454 14.4634H4.53358L3.45422 17.6475L3.40025 14.4634H1.83517L0.97168 19.6443H1.99708Z" fill="white"/>
<path d="M18.7273 19.6441C19.0511 17.8631 19.1051 16.406 19.8607 16.6758C19.9686 15.9743 20.1305 15.7044 20.2384 15.4346C20.2384 15.4346 20.1845 15.4346 20.0226 15.4346C19.5369 15.4346 19.1591 16.0822 19.1591 16.0822L19.267 15.4885H18.2416L17.54 19.6981H18.7273V19.6441Z" fill="white"/>
<path d="M25.419 15.3267C24.6634 15.3267 24.1237 15.5425 24.1237 15.5425L23.9618 16.46C23.9618 16.46 24.4475 16.2441 25.1491 16.2441C25.5269 16.2441 25.8507 16.2981 25.8507 16.6219C25.8507 16.8378 25.7967 16.8917 25.7967 16.8917C25.7967 16.8917 25.4729 16.8917 25.311 16.8917C24.3936 16.8917 23.3682 17.2695 23.3682 18.5108C23.3682 19.4822 24.0158 19.6981 24.3936 19.6981C25.1491 19.6981 25.4729 19.2124 25.5269 19.2124L25.4729 19.6441H26.4444L26.8761 16.6759C26.9301 15.3806 25.7967 15.3267 25.419 15.3267ZM25.6888 17.7552C25.6888 17.9171 25.5809 18.7806 24.9332 18.7806C24.6094 18.7806 24.5015 18.5108 24.5015 18.3489C24.5015 18.079 24.6634 17.7013 25.4729 17.7013C25.6348 17.7552 25.6348 17.7552 25.6888 17.7552Z" fill="white"/>
<path d="M27.7937 19.6441C28.1176 17.8631 28.1715 16.406 28.9271 16.6758C29.035 15.9743 29.1969 15.7044 29.3049 15.4346C29.3049 15.4346 29.2509 15.4346 29.089 15.4346C28.6033 15.4346 28.2255 16.0822 28.2255 16.0822L28.3334 15.4885H27.308L26.6064 19.6981H27.7937V19.6441Z" fill="white"/>
<path d="M12.1426 18.835C12.1426 19.4826 12.5204 19.7524 13.0061 19.7524C13.3838 19.7524 13.7077 19.6445 13.8156 19.5905L13.9775 18.6731C13.9235 18.6731 13.8156 18.727 13.7077 18.727C13.3299 18.727 13.2759 18.5111 13.3299 18.4032L13.6537 16.5143H14.2473L14.4092 15.4889H13.8696L13.9775 14.8413" fill="#DCE5E5"/>
<path d="M14.7334 17.8636C14.7334 19.3747 15.2191 19.7525 16.0826 19.7525C16.8921 19.7525 17.2159 19.5906 17.2159 19.5906L17.4318 18.5652C17.4318 18.5652 16.8382 18.835 16.2985 18.835C15.1112 18.835 15.327 17.9716 15.327 17.9716H17.5397C17.5397 17.9716 17.7017 17.27 17.7017 17.0001C17.7017 16.2985 17.3239 15.4351 16.1366 15.4351C15.0032 15.3271 14.7334 16.5144 14.7334 17.8636ZM16.0826 16.2985C16.6763 16.2985 16.7842 17.0001 16.7842 17.0541H15.381C15.381 17.0001 15.489 16.2985 16.0826 16.2985Z" fill="#DCE5E5"/>
<path d="M22.9364 19.5904L23.1523 18.4031C23.1523 18.4031 22.6126 18.6729 22.2348 18.6729C21.4792 18.6729 21.1554 18.0793 21.1554 17.4317C21.1554 16.1364 21.8031 15.4348 22.5586 15.4348C23.0983 15.4348 23.53 15.7586 23.53 15.7586L23.6919 14.6253C23.6919 14.6253 23.0443 14.3555 22.4507 14.3555C21.2094 14.3555 20.5078 15.4348 20.5078 17.4856C20.5078 18.8348 20.6157 19.7523 21.911 19.7523C22.3427 19.7523 22.9364 19.5904 22.9364 19.5904Z" fill="#DCE5E5"/>
<path d="M6.42275 16.5139C6.42275 16.5139 6.90846 16.2981 7.61005 16.2981C7.98782 16.2981 8.31163 16.352 8.31163 16.6758C8.31163 16.8917 8.25767 16.9457 8.25767 16.9457C8.25767 16.9457 7.93386 16.9457 7.77195 16.9457C6.85449 16.9457 5.8291 17.3235 5.8291 18.5647C5.8291 19.5362 6.47672 19.752 6.85449 19.752C7.61005 19.752 7.93386 19.2663 7.98782 19.2663L7.93386 19.6981H8.90528L9.33703 16.7298C9.33703 15.4885 8.25766 15.4346 7.82592 15.4346L6.42275 16.5139ZM8.63544 17.7552C8.63544 17.9171 7.98782 18.7806 7.34021 18.7806C7.0164 18.7806 6.90846 18.5108 6.90846 18.3489C6.90846 18.079 7.07037 17.7012 7.87989 17.7012C8.04179 17.7552 8.63544 17.7552 8.63544 17.7552Z" fill="#DCE5E5"/>
<path d="M9.1748 19.5904C9.1748 19.5904 9.49861 19.6983 10.4161 19.6983C10.6859 19.6983 12.0351 19.7523 12.0351 18.2952C12.0351 16.946 10.7399 17.2158 10.7399 16.6761C10.7399 16.4063 10.9558 16.2983 11.3335 16.2983C11.4954 16.2983 12.0891 16.3523 12.0891 16.3523L12.251 15.3809C12.251 15.3809 11.8732 15.2729 11.2256 15.2729C10.4161 15.2729 10.1462 15.5968 10.1462 16.6761C10.1462 17.9174 10.9558 17.8095 10.9558 18.2952C10.9558 18.619 10.578 18.6729 10.3081 18.6729" fill="#DCE5E5"/>
<path d="M31.679 15.9208C31.679 15.9208 31.2473 15.3811 30.6536 15.3811C29.6822 15.3811 29.3584 16.5684 29.3584 17.9715C29.3584 18.835 29.2505 19.7525 30.1679 19.7525C30.8156 19.7525 31.1933 19.3208 31.1933 19.3208L31.1394 19.6985H32.2187L33.0283 14.5176L31.679 15.9208ZM31.6251 17.3239C31.6251 17.9176 31.1394 18.6731 30.5457 18.6731C30.1679 18.6731 29.9521 18.3493 29.9521 17.8096C29.9521 16.9461 30.3298 16.4065 30.8156 16.4065C31.1933 16.4065 31.6251 16.6763 31.6251 17.3239Z" fill="#DCE5E5"/>
<path d="M1.99708 19.6443L2.6447 15.7586L2.75263 19.6443H3.50819L4.91136 15.7586L4.31771 19.6443H5.45105L6.31454 14.4634H4.96533L3.45422 17.6475L3.40025 14.4634H2.8066L0.97168 19.6443H1.99708Z" fill="#DCE5E5"/>
<path d="M17.5938 19.6441H18.7271C19.0509 17.8631 19.1049 16.406 19.8604 16.6758C19.9684 15.9743 20.1303 15.7044 20.2382 15.4346C20.2382 15.4346 20.1842 15.4346 20.0223 15.4346C19.5366 15.4346 19.1588 16.0822 19.1588 16.0822L19.2668 15.4885" fill="#DCE5E5"/>
<path d="M23.9618 16.5139C23.9618 16.5139 24.4475 16.2981 25.1491 16.2981C25.5269 16.2981 25.8507 16.352 25.8507 16.6758C25.8507 16.8917 25.7967 16.9457 25.7967 16.9457C25.7967 16.9457 25.4729 16.9457 25.311 16.9457C24.3936 16.9457 23.3682 17.3235 23.3682 18.5647C23.3682 19.5362 24.0158 19.752 24.3936 19.752C25.1491 19.752 25.4729 19.2663 25.5269 19.2663L25.4729 19.6981H26.4444L26.8761 16.7298C26.8761 15.4885 25.7967 15.4346 25.365 15.4346L23.9618 16.5139ZM26.1745 17.7552C26.1745 17.9171 25.5269 18.7806 24.8793 18.7806C24.5555 18.7806 24.4475 18.5108 24.4475 18.3489C24.4475 18.079 24.6094 17.7012 25.419 17.7012C25.6348 17.7552 26.1745 17.7552 26.1745 17.7552Z" fill="#DCE5E5"/>
<path d="M26.6611 19.6441H27.7945C28.1183 17.8631 28.1722 16.406 28.9278 16.6758C29.0357 15.9743 29.1976 15.7044 29.3056 15.4346C29.3056 15.4346 29.2516 15.4346 29.0897 15.4346C28.604 15.4346 28.2262 16.0822 28.2262 16.0822L28.3341 15.4885" fill="#DCE5E5"/>
</g>
<defs>
<clipPath id="clip0">
<rect width="34" height="34" fill="white"/>
</clipPath>
</defs>
</svg>
