<svg width="25" height="31" viewBox="0 0 25 31" fill="none" xmlns="http://www.w3.org/2000/svg">
<rect x="5.55078" y="18.0684" width="14" height="5" transform="rotate(8 5.55078 18.0684)" fill="white"/>
<path d="M23.9544 2.80442L4.81233 0.114165C4.36371 0.0511156 3.94888 0.363706 3.88583 0.812328L0.553611 24.5223C0.523334 24.7378 0.57991 24.9565 0.710785 25.1302L2.76729 27.8593C3.03995 28.2211 3.55426 28.2934 3.91614 28.0207L5.99006 26.4579L7.55277 28.5318C7.6837 28.7056 7.87827 28.8202 8.0937 28.8505C8.30913 28.8808 8.52781 28.8243 8.70156 28.6933L10.7754 27.1305L12.3382 29.2044C12.4692 29.3781 12.6638 29.4928 12.8792 29.5231C13.0946 29.5533 13.3133 29.4968 13.487 29.3658L15.5609 27.803L17.1237 29.8769C17.26 30.0578 17.4567 30.1664 17.6646 30.1956C17.8725 30.2248 18.0916 30.1747 18.2725 30.0384L21.0015 27.9819C21.1753 27.8509 21.2899 27.6564 21.3202 27.4409L24.6524 3.73089C24.7157 3.28229 24.403 2.86746 23.9544 2.80442ZM15.8153 22.8374L7.11431 21.6146C6.66569 21.5515 6.3531 21.1367 6.41615 20.6881C6.4792 20.2395 6.89402 19.9269 7.34264 19.9899L16.0436 21.2128C16.4922 21.2758 16.8048 21.6906 16.7418 22.1393C16.6787 22.5879 16.2638 22.9005 15.8153 22.8374Z" fill="#F7981D"/>
<path d="M13.048 15.9269C13.5471 15.997 13.9973 15.9553 14.3985 15.8016C14.8089 15.6411 15.1499 15.37 15.4217 14.9881L17.0497 15.2169C16.6294 15.9657 16.0486 16.5061 15.3071 16.8381C14.5657 17.1702 13.7553 17.2744 12.876 17.1508C11.9491 17.0206 11.1602 16.6552 10.5095 16.0548C9.8598 15.4465 9.45138 14.7024 9.2842 13.8226L8.19095 13.6689L8.32121 12.742L9.20057 12.8656C9.2159 12.6416 9.23247 12.4662 9.25029 12.3394C9.2681 12.2127 9.30052 12.0395 9.34754 11.8199L8.46818 11.6963L8.59844 10.7694L9.6917 10.9231C10.0949 10.1234 10.6921 9.52467 11.4831 9.1269C12.2753 8.7212 13.1348 8.58348 14.0617 8.71375C14.9331 8.83622 15.6789 9.16319 16.299 9.69466C16.9281 10.2193 17.3414 10.8995 17.5391 11.7351L15.9111 11.5063C15.7551 11.0643 15.5014 10.7136 15.1501 10.4542C14.8078 10.1879 14.3871 10.0197 13.888 9.9496C13.3097 9.86832 12.7798 9.93119 12.2983 10.1382C11.8247 10.3463 11.4391 10.6758 11.1415 11.1268L13.6726 11.4825L13.5423 12.4094L10.7498 12.017C10.7026 12.18 10.6662 12.3526 10.6406 12.5348C10.615 12.717 10.6024 12.893 10.6028 13.0627L13.3953 13.4552L13.2651 14.382L10.734 14.0263C10.8947 14.5498 11.174 14.9768 11.5718 15.3074C11.9776 15.6391 12.4697 15.8456 13.048 15.9269Z" fill="#F5F5F7"/>
</svg>
