<svg width="34" height="34" viewBox="0 0 34 34" fill="none" xmlns="http://www.w3.org/2000/svg">
<path d="M20.1875 1.0625H7.4375C5.67709 1.0625 4.25 2.48959 4.25 4.25V29.75C4.25 31.5104 5.67709 32.9375 7.4375 32.9375H20.1875C21.9479 32.9375 23.375 31.5104 23.375 29.75V4.25C23.375 2.48959 21.9479 1.0625 20.1875 1.0625Z" fill="#FF8500"/>
<path d="M21.25 29.2188C21.25 29.6414 21.0821 30.0468 20.7832 30.3457C20.4843 30.6446 20.0789 30.8125 19.6562 30.8125H7.96875C7.54606 30.8125 7.14068 30.6446 6.8418 30.3457C6.54291 30.0468 6.375 29.6414 6.375 29.2188V4.78125C6.375 4.35856 6.54291 3.95318 6.8418 3.6543C7.14068 3.35541 7.54606 3.1875 7.96875 3.1875H9.5625V4.25C9.5625 4.53179 9.67444 4.80204 9.8737 5.0013C10.073 5.20056 10.3432 5.3125 10.625 5.3125H17C17.2818 5.3125 17.552 5.20056 17.7513 5.0013C17.9506 4.80204 18.0625 4.53179 18.0625 4.25V3.1875H19.6562C20.0789 3.1875 20.4843 3.35541 20.7832 3.6543C21.0821 3.95318 21.25 4.35856 21.25 4.78125V29.2188Z" fill="#F5F3FF"/>
<path d="M18.0625 3.1875V4.25C18.0625 4.53179 17.9506 4.80204 17.7513 5.0013C17.552 5.20056 17.2818 5.3125 17 5.3125H10.625C10.3432 5.3125 10.073 5.20056 9.8737 5.0013C9.67444 4.80204 9.5625 4.53179 9.5625 4.25V3.1875H7.96875C7.54606 3.1875 7.14068 3.35541 6.8418 3.6543C6.54291 3.95318 6.375 4.35856 6.375 4.78125V28.6875H17C17.5636 28.6875 18.1041 28.4636 18.5026 28.0651C18.9011 27.6666 19.125 27.1261 19.125 26.5625V3.1875H18.0625Z" fill="white"/>
<path d="M15.9375 22.8438H29.75V9.03125H15.9375V14.3438L10.625 15.9375L15.9375 17.5312V22.8438Z" fill="#2763BB"/>
<path d="M15.9375 9.03125V14.3438L10.625 15.9375L15.9375 17.5312V20.7188H26.0312C26.4539 20.7188 26.8593 20.5508 27.1582 20.252C27.4571 19.9531 27.625 19.5477 27.625 19.125V9.03125H15.9375Z" fill="#3079E6"/>
<path d="M11.1562 2.65625H16.4688V3.71875H11.1562V2.65625Z" fill="#FFB600"/>
<path d="M13.8125 28.6875C14.3993 28.6875 14.875 28.2118 14.875 27.625C14.875 27.0382 14.3993 26.5625 13.8125 26.5625C13.2257 26.5625 12.75 27.0382 12.75 27.625C12.75 28.2118 13.2257 28.6875 13.8125 28.6875Z" fill="#FFB600"/>
<path d="M18.5938 11.6875H19.6562V10.625H18.0625C17.9216 10.625 17.7865 10.681 17.6868 10.7806C17.5872 10.8802 17.5312 11.0154 17.5312 11.1562V12.75H18.5938V11.6875Z" fill="white"/>
<path d="M27.625 10.625H26.0312V11.6875H27.0938V12.75H28.1562V11.1562C28.1562 11.0154 28.1003 10.8802 28.0007 10.7806C27.901 10.681 27.7659 10.625 27.625 10.625Z" fill="white"/>
<path d="M18.5938 19.125H17.5312V20.7188C17.5312 20.8596 17.5872 20.9948 17.6868 21.0944C17.7865 21.194 17.9216 21.25 18.0625 21.25H19.6562V20.1875H18.5938V19.125Z" fill="white"/>
<path d="M27.0938 20.1875H26.0312V21.25H27.625C27.7659 21.25 27.901 21.194 28.0007 21.0944C28.1003 20.9948 28.1562 20.8596 28.1562 20.7188V19.125H27.0938V20.1875Z" fill="white"/>
<path d="M21.7812 12.2188H19.6562C19.5154 12.2188 19.3802 12.2747 19.2806 12.3743C19.181 12.474 19.125 12.6091 19.125 12.75V14.875C19.125 15.0159 19.181 15.151 19.2806 15.2507C19.3802 15.3503 19.5154 15.4062 19.6562 15.4062H21.7812C21.9221 15.4062 22.0573 15.3503 22.1569 15.2507C22.2565 15.151 22.3125 15.0159 22.3125 14.875V12.75C22.3125 12.6091 22.2565 12.474 22.1569 12.3743C22.0573 12.2747 21.9221 12.2188 21.7812 12.2188ZM21.25 14.3438H20.1875V13.2812H21.25V14.3438Z" fill="white"/>
<path d="M26.5625 19.125V17C26.5625 16.8591 26.5065 16.724 26.4069 16.6243C26.3073 16.5247 26.1721 16.4688 26.0312 16.4688H23.9062C23.7654 16.4688 23.6302 16.5247 23.5306 16.6243C23.431 16.724 23.375 16.8591 23.375 17V19.125C23.375 19.2659 23.431 19.401 23.5306 19.5007C23.6302 19.6003 23.7654 19.6562 23.9062 19.6562H26.0312C26.1721 19.6562 26.3073 19.6003 26.4069 19.5007C26.5065 19.401 26.5625 19.2659 26.5625 19.125ZM25.5 18.5938H24.4375V17.5312H25.5V18.5938Z" fill="white"/>
<path d="M23.9062 15.4062H26.5625V14.3438H24.4375V12.2188H23.375V14.875C23.375 15.0159 23.431 15.151 23.5306 15.2507C23.6302 15.3503 23.7654 15.4062 23.9062 15.4062Z" fill="white"/>
<path d="M24.9688 12.75H26.0312V13.8125H24.9688V12.75Z" fill="white"/>
<path d="M21.7812 16.4688H19.125V17.5312H21.25V19.6562H22.3125V17C22.3125 16.8591 22.2565 16.724 22.1569 16.6243C22.0573 16.5247 21.9221 16.4688 21.7812 16.4688Z" fill="white"/>
<path d="M19.6562 18.0625H20.7188V19.125H19.6562V18.0625Z" fill="white"/>
</svg>
