<svg width="22" height="24" viewBox="0 0 22 24" fill="none" xmlns="http://www.w3.org/2000/svg">
<path fill-rule="evenodd" clip-rule="evenodd" d="M10.8089 16.1551C10.4332 16.1551 10.1283 15.8191 10.1283 15.4051V8.07813C10.1283 7.66413 10.4332 7.32812 10.8089 7.32812C11.1846 7.32812 11.4895 7.66413 11.4895 8.07813V15.4051C11.4895 15.8191 11.1846 16.1551 10.8089 16.1551Z" fill="#F5F5F7"/>
<path fill-rule="evenodd" clip-rule="evenodd" d="M14.1362 12.4883H7.48174C7.10515 12.4883 6.80115 12.1523 6.80115 11.7383C6.80115 11.3243 7.10515 10.9883 7.48174 10.9883H14.1362C14.5119 10.9883 14.8168 11.3243 14.8168 11.7383C14.8168 12.1523 14.5119 12.4883 14.1362 12.4883Z" fill="#F5F5F7"/>
<path fill-rule="evenodd" clip-rule="evenodd" d="M6.55656 2.5C4.04108 2.5 2.4149 4.397 2.4149 7.335V16.165C2.4149 19.103 4.04108 21 6.55656 21H15.0613C17.5777 21 19.203 19.103 19.203 16.165V7.335C19.203 4.397 17.5777 2.5 15.0613 2.5H6.55656ZM15.0613 22.5H6.55656C3.2652 22.5 1.05371 19.954 1.05371 16.165V7.335C1.05371 3.546 3.2652 1 6.55656 1H15.0613C18.3527 1 20.5642 3.546 20.5642 7.335V16.165C20.5642 19.954 18.3527 22.5 15.0613 22.5Z" fill="#F5F5F7"/>
</svg>
