<svg width="41" height="40" viewBox="0 0 41 40" fill="none" xmlns="http://www.w3.org/2000/svg">
<g clip-path="url(#clip0)">
<path d="M20.8897 39.9983C31.9349 39.9983 40.8888 31.0444 40.8888 19.9991C40.8888 8.95392 31.9349 0 20.8897 0C9.84443 0 0.890503 8.95392 0.890503 19.9991C0.890503 31.0444 9.84443 39.9983 20.8897 39.9983Z" fill="#F3F2F2"/>
<path d="M15.699 23.8373L17.2293 14.8008H19.7069L18.1767 23.8373H15.699Z" fill="#293688"/>
<path d="M26.9972 15.0355C26.5062 14.8524 25.7369 14.6562 24.7762 14.6562C22.3276 14.6562 20.6028 15.8822 20.588 17.6385C20.5744 18.9367 21.8192 19.6608 22.7596 20.0934C23.724 20.5355 24.0483 20.8191 24.0436 21.2142C24.0376 21.8199 23.2731 22.0968 22.5607 22.0968C21.5691 22.0965 21.0421 21.9597 20.2283 21.6225L19.909 21.4785L19.561 23.5015C20.1399 23.7538 21.2104 23.9727 22.3216 23.9837C24.9259 23.9831 26.6172 22.7724 26.6362 20.8963C26.6457 19.8684 25.9854 19.0862 24.5558 18.441C23.6896 18.0235 23.1591 17.7447 23.1648 17.3209C23.1648 16.9455 23.6141 16.5438 24.5839 16.5438C25.3942 16.5312 25.9812 16.7068 26.4388 16.8899L26.6605 16.9942L26.9972 15.0355Z" fill="#293688"/>
<path d="M31.2211 14.8008C30.6275 14.8008 30.1986 14.9821 29.9377 15.5704L26.2657 23.8376H28.889L29.399 22.4529H32.5332L32.8244 23.8376H35.1565L33.1162 14.801H31.2212L31.2211 14.8008ZM30.095 20.6447C30.2997 20.1243 31.0819 18.119 31.0819 18.119C31.0677 18.1427 31.2855 17.5961 31.4106 17.2569L31.5783 18.0356C31.5783 18.0356 32.0522 20.1928 32.1517 20.645H30.095V20.6447Z" fill="#293688"/>
<path d="M11.1809 20.9952L10.9626 19.7564C10.5105 18.3123 9.10705 16.7498 7.53442 15.967L9.72347 23.8373H12.3473L16.2823 14.8008H13.6591L11.1809 20.9952Z" fill="#293688"/>
<path d="M4.84094 14.8008V14.9467C7.9499 15.6944 10.1083 17.5848 10.9628 19.7565L10.0644 15.572C9.91445 15.0001 9.45998 14.8207 8.92221 14.8009L4.84094 14.8008Z" fill="#F7981D"/>
<path d="M20.8878 40.002C28.607 40.002 35.3 35.6265 38.6338 29.2227H3.14221C6.47625 35.6265 13.1691 40.002 20.8878 40.002Z" fill="#F7981D"/>
<path d="M20.8884 0C13.2918 0 6.68459 4.2353 3.29907 10.4737H38.4784C35.0925 4.23563 28.485 0 20.8884 0Z" fill="#293688"/>
</g>
<defs>
<clipPath id="clip0">
<rect width="40" height="40" fill="white" transform="translate(0.889526)"/>
</clipPath>
</defs>
</svg>
