<svg width="25" height="25" viewBox="0 0 25 25" fill="none" xmlns="http://www.w3.org/2000/svg">
<path d="M20.8327 4.16797H6.24935C5.10039 4.16797 4.16602 5.10234 4.16602 6.2513V11.4596H6.24935V8.33464L12.916 13.3346C13.1014 13.4732 13.3212 13.543 13.541 13.543C13.7608 13.543 13.9806 13.4732 14.166 13.3346L20.8327 8.33464V17.7096H12.4993V19.793H20.8327C21.9816 19.793 22.916 18.8586 22.916 17.7096V6.2513C22.916 5.10234 21.9816 4.16797 20.8327 4.16797ZM13.541 11.1992L6.9431 6.2513H20.1389L13.541 11.1992Z" fill="#D2D2D2"/>
<path d="M2.08398 12.5H9.37565V14.5833H2.08398V12.5ZM4.16732 15.625H10.4173V17.7083H4.16732V15.625ZM7.29232 18.75H11.459V20.8333H7.29232V18.75Z" fill="#D2D2D2"/>
</svg>
