<svg width="20" height="21" viewBox="0 0 20 21" fill="none" xmlns="http://www.w3.org/2000/svg">
<path d="M0.750122 1.25L2.83012 1.61L3.79312 13.083C3.87012 14.02 4.65312 14.739 5.59312 14.736H16.5021C17.3991 14.738 18.1601 14.078 18.2871 13.19L19.2361 6.632C19.3421 5.899 18.8331 5.219 18.1011 5.113C18.0371 5.104 3.16412 5.099 3.16412 5.099" stroke="#FFF600" stroke-width="1.5" stroke-linecap="round" stroke-linejoin="round"/>
<path d="M12.1251 8.79297H14.8981" stroke="#FFF600" stroke-width="1.5" stroke-linecap="round" stroke-linejoin="round"/>
<path fill-rule="evenodd" clip-rule="evenodd" d="M5.15441 18.2031C5.45541 18.2031 5.69841 18.4471 5.69841 18.7471C5.69841 19.0481 5.45541 19.2921 5.15441 19.2921C4.85341 19.2921 4.61041 19.0481 4.61041 18.7471C4.61041 18.4471 4.85341 18.2031 5.15441 18.2031Z" fill="#FFF600" stroke="#FFF600" stroke-width="1.5" stroke-linecap="round" stroke-linejoin="round"/>
<path fill-rule="evenodd" clip-rule="evenodd" d="M16.4347 18.2031C16.7357 18.2031 16.9797 18.4471 16.9797 18.7471C16.9797 19.0481 16.7357 19.2921 16.4347 19.2921C16.1337 19.2921 15.8907 19.0481 15.8907 18.7471C15.8907 18.4471 16.1337 18.2031 16.4347 18.2031Z" fill="#FFF600" stroke="#FFF600" stroke-width="1.5" stroke-linecap="round" stroke-linejoin="round"/>
</svg>
