<svg width="14" height="18" viewBox="0 0 14 18" fill="none" xmlns="http://www.w3.org/2000/svg">
<mask id="mask0" style="mask-type:alpha" maskUnits="userSpaceOnUse" x="0" y="11" width="14" height="7">
<path fill-rule="evenodd" clip-rule="evenodd" d="M0.333008 11.0801H13.5329V17.2251H0.333008V11.0801Z" fill="white"/>
</mask>
<g mask="url(#mask0)">
<path fill-rule="evenodd" clip-rule="evenodd" d="M6.93384 12.3301C3.38301 12.3301 1.58301 12.9401 1.58301 14.1442C1.58301 15.3592 3.38301 15.9751 6.93384 15.9751C10.4838 15.9751 12.283 15.3651 12.283 14.1609C12.283 12.9459 10.4838 12.3301 6.93384 12.3301ZM6.93384 17.2251C5.30134 17.2251 0.333008 17.2251 0.333008 14.1442C0.333008 11.3976 4.10051 11.0801 6.93384 11.0801C8.56634 11.0801 13.533 11.0801 13.533 14.1609C13.533 16.9076 9.76634 17.2251 6.93384 17.2251Z" fill="#F5F5F7"/>
</g>
<mask id="mask1" style="mask-type:alpha" maskUnits="userSpaceOnUse" x="2" y="0" width="10" height="10">
<path fill-rule="evenodd" clip-rule="evenodd" d="M2.50781 0.666992H11.3578V9.51582H2.50781V0.666992Z" fill="white"/>
</mask>
<g mask="url(#mask1)">
<path fill-rule="evenodd" clip-rule="evenodd" d="M6.93372 1.85655C5.14955 1.85655 3.69789 3.30738 3.69789 5.09155C3.69205 6.86988 5.13289 8.31988 6.90955 8.32655L6.93372 8.92155V8.32655C8.71705 8.32655 10.1679 6.87488 10.1679 5.09155C10.1679 3.30738 8.71705 1.85655 6.93372 1.85655ZM6.93367 9.51567H6.90701C4.47201 9.50817 2.49951 7.52234 2.50784 5.089C2.50784 2.6515 4.49284 0.666504 6.93367 0.666504C9.37367 0.666504 11.3578 2.6515 11.3578 5.0915C11.3578 7.5315 9.37367 9.51567 6.93367 9.51567Z" fill="#F5F5F7"/>
</g>
</svg>
