<svg width="160" height="160" viewBox="0 0 160 160" fill="none" xmlns="http://www.w3.org/2000/svg">
<path d="M160 80C160 102.091 151.046 122.091 136.568 136.568C131.91 141.227 113.425 132.061 107.737 135.462C101.133 139.41 107.165 155.686 99.5069 157.605C93.2631 159.169 86.7284 160 80 160C73.2716 160 66.7369 159.169 60.4934 157.605C51.8622 155.443 64.6637 131.001 57.4006 126.29C52.9288 123.389 27.8878 140.931 24.0916 137.221C9.22688 122.695 0 102.425 0 80C0 35.8172 35.8172 0 80 0C124.183 0 160 35.8172 160 80Z" fill="#333336"/>
<path d="M134.927 59.1919H115.228V24.5869H134.927C137.477 24.5869 139.544 26.6544 139.544 29.2047V54.5741C139.544 57.1244 137.477 59.1919 134.927 59.1919Z" fill="#362A40"/>
<path d="M23.675 32.0693H44.7713V48.9043H23.675C21.8963 48.9043 20.4541 47.4621 20.4541 45.6834V35.2903C20.4541 33.5112 21.8963 32.0693 23.675 32.0693Z" fill="#362A40"/>
<path d="M23.675 52.541H44.7713V69.376H23.675C21.8963 69.376 20.4541 67.9338 20.4541 66.1551V55.762C20.4541 53.9832 21.8963 52.541 23.675 52.541Z" fill="#362A40"/>
<path d="M135.91 20.0932V137.221C133.803 139.278 131.585 141.221 129.263 143.034C127.444 144.459 120.27 139.261 118.331 140.525C115.944 142.081 118.763 150.056 116.21 151.353C110.95 154.028 105.356 156.137 99.5065 157.603H60.4939C54.6439 156.137 49.0502 154.028 43.7908 151.353C41.7402 150.311 48.7461 140.178 46.8018 138.968C44.358 137.448 32.9968 144.804 30.7377 143.034C28.4158 141.221 26.1971 139.278 24.0908 137.221V20.0932C24.0908 10.4088 31.9439 2.55566 41.6283 2.55566H118.372C128.056 2.55566 135.91 10.4088 135.91 20.0932Z" fill="#50405A"/>
<path d="M48.7999 2.55566C40.4405 2.55566 33.4499 8.40254 31.6905 16.2275C31.4093 17.4713 31.2624 18.765 31.2624 20.0932V140.065C31.2624 141.324 32.1071 141.35 32.3633 142.534C32.0574 142.302 31.0399 143.271 30.7374 143.034C28.4164 141.22 26.1974 139.278 24.0908 137.221V20.0932C24.0908 10.4088 31.9439 2.55566 41.6283 2.55566H48.7999Z" fill="#362A40"/>
<path d="M129.66 20.0932V140.065C129.66 141.093 129.522 142.087 129.263 143.034C125.206 146.212 120.838 149.003 116.21 151.353H43.7908C39.1627 149.003 34.7939 146.212 30.7377 143.034C30.4783 142.087 30.3408 141.093 30.3408 140.065V20.0932C30.3408 13.8713 35.4064 8.80566 41.6283 8.80566H118.372C124.594 8.80566 129.66 13.8713 129.66 20.0932Z" fill="#6DAEF7"/>
<path d="M50.0439 151.353H43.7908C39.1627 149.003 34.7939 146.212 30.7377 143.034C30.4783 142.087 30.3408 141.093 30.3408 140.065V20.0932C30.3408 13.8713 35.4033 8.80566 41.6283 8.80566H50.0439C43.8221 8.80566 38.7596 13.8713 38.7596 20.0932V140.065C38.7596 146.29 43.8221 151.353 50.0439 151.353Z" fill="#5892E6"/>
<path d="M79.9991 23.7554C74.145 23.7554 69.3994 19.0097 69.3994 13.1557V2.55566H90.5988V13.1554C90.5988 19.0094 85.8532 23.7554 79.9991 23.7554Z" fill="#50405A"/>
<path d="M79.9991 17.505C82.4014 17.505 84.3488 15.5576 84.3488 13.1554C84.3488 10.7531 82.4014 8.80566 79.9991 8.80566C77.5968 8.80566 75.6494 10.7531 75.6494 13.1554C75.6494 15.5576 77.5968 17.505 79.9991 17.505Z" fill="#362A40"/>
<path d="M110.759 42.9795H49.2407C42.5339 42.9795 37.0967 48.4164 37.0967 55.1232V94.4339C37.0967 101.141 42.5336 106.578 49.2407 106.578H68.5964L75.6173 118.739C77.5651 122.112 82.4348 122.112 84.3826 118.739L91.4036 106.578H110.759C117.466 106.578 122.903 101.141 122.903 94.4339V55.1236C122.903 48.4167 117.466 42.9795 110.759 42.9795Z" fill="#FFF600"/>
<path d="M59.2154 106.58H49.2404C42.5311 106.58 37.0967 101.143 37.0967 94.4367V55.1242C37.0967 48.418 42.5311 42.9805 49.2404 42.9805H59.2154C52.5092 42.9805 47.0717 48.418 47.0717 55.1242V94.4367C47.0717 101.143 52.5092 106.58 59.2154 106.58Z" fill="#F5ED06"/>
<path d="M79.4471 87.3042C78.2411 87.3042 77.1746 86.5379 76.7896 85.3936C76.7805 85.3658 76.7714 85.3379 76.7633 85.3098L73.1942 73.2133L71.0277 85.2176C70.798 86.4917 69.578 87.3373 68.3049 87.1079C67.0311 86.8779 66.1849 85.6589 66.4146 84.3851L69.9939 64.5539C70.2396 63.277 71.2949 62.3445 72.5655 62.2595C73.8349 62.1745 75.0058 62.9583 75.4105 64.1651C75.4196 64.1923 75.4283 64.2198 75.4364 64.2473L79.4161 77.737L83.2549 64.2711C83.2624 64.2442 83.2708 64.2173 83.2796 64.1904C83.6721 62.9804 84.8261 62.1851 86.1036 62.2564C87.3736 62.3279 88.4389 63.2483 88.6936 64.4951L92.4902 84.3617C92.7333 85.6329 91.8996 86.8608 90.6283 87.1036C89.3574 87.3467 88.1292 86.5129 87.8864 85.2414L85.5846 73.1973L82.1389 85.2851C82.1311 85.3123 82.1227 85.3398 82.1139 85.3667C81.7396 86.5195 80.6736 87.2983 79.4617 87.3042C79.4571 87.3042 79.4521 87.3042 79.4471 87.3042Z" fill="black"/>
<path d="M105.078 87.3044C101.697 87.3044 98.3944 85.8881 96.2447 83.5156C95.3756 82.5563 95.4484 81.0744 96.4075 80.205C97.3666 79.3356 98.8487 79.4088 99.7181 80.3678C100.994 81.776 102.998 82.6166 105.078 82.6166C107.152 82.6166 108.616 81.3547 108.834 80.1347C109.131 78.471 106.976 77.4844 106.035 77.1375C102.883 75.9747 100.084 74.7291 99.9669 74.6766C99.8541 74.6263 99.7453 74.5669 99.6419 74.4997C97.5612 73.1431 96.4891 70.7638 96.8441 68.29C97.2234 65.6485 99.1581 63.4956 101.893 62.6716C107.353 61.0269 111.852 64.7366 112.041 64.8953C113.032 65.7281 113.16 67.2066 112.327 68.1975C111.497 69.185 110.027 69.3153 109.036 68.4928C108.962 68.4338 106.222 66.2635 103.246 67.16C101.827 67.5875 101.542 68.5588 101.484 68.9566C101.441 69.2547 101.421 69.975 102.077 70.4847C102.764 70.786 105.122 71.8053 107.657 72.7403C112.678 74.5925 113.941 78.2003 113.448 80.9594C112.792 84.636 109.272 87.3044 105.078 87.3044Z" fill="black"/>
<path d="M55.889 87.3051C52.5077 87.3051 49.2052 85.8888 47.0552 83.5163C46.1862 82.5572 46.259 81.0751 47.218 80.2057C48.1765 79.3366 49.659 79.4091 50.5287 80.3685C51.8049 81.7766 53.8087 82.6176 55.8887 82.6176C57.9624 82.6176 59.4268 81.3557 59.6449 80.1357C59.9418 78.4719 57.7865 77.4854 56.8458 77.1385C53.6937 75.9757 50.8952 74.7301 50.7777 74.6776C50.6649 74.6273 50.5562 74.5679 50.4527 74.5007C48.3718 73.1441 47.2996 70.7644 47.6549 68.291C48.0343 65.6494 49.969 63.4966 52.7043 62.6726C58.1634 61.0279 62.6627 64.7376 62.8518 64.8963C63.8427 65.7294 63.9705 67.2076 63.1377 68.1985C62.3077 69.1854 60.8371 69.3166 59.8465 68.4935C59.7721 68.4335 57.0352 66.2638 54.0565 67.1607C52.638 67.5882 52.3521 68.5591 52.2949 68.9569C52.2521 69.2551 52.2312 69.9754 52.8877 70.4851C53.5755 70.7863 55.933 71.8057 58.468 72.7407C63.489 74.5929 64.7518 78.2007 64.2593 80.9597C63.6027 84.6366 60.0827 87.3051 55.889 87.3051Z" fill="black"/>
</svg>
