<svg width="36" height="36" viewBox="0 0 36 36" fill="none" xmlns="http://www.w3.org/2000/svg">
<g clip-path="url(#clip0)">
<path d="M11.1649 34.7847C4.62744 32.2139 0 25.8451 0 18.3953C0 8.6724 7.88187 0.790527 17.6048 0.790527C25.0546 0.790527 31.4234 5.41797 33.9942 11.9554C31.9988 11.1699 29.8257 10.737 27.5512 10.737C17.8286 10.737 9.94647 18.6189 9.94647 28.3418C9.94647 30.6162 10.3793 32.789 11.1649 34.7847Z" fill="#FFF600" fill-opacity="0.38"/>
<path d="M26.5149 9.70068C29.0692 9.70068 31.4959 10.2453 33.6865 11.2237C34.6649 13.4143 35.2095 15.8409 35.2095 18.3953C35.2095 28.1182 27.3276 36 17.6047 36C15.0507 36 12.6238 35.4554 10.4331 34.4771C9.4548 32.2864 8.91016 29.8595 8.91016 27.3055C8.91016 17.5826 16.792 9.70068 26.5149 9.70068Z" fill="#FFF600" fill-opacity="0.22"/>
<path d="M11.0555 19.4014H32.4009C32.6681 19.4014 32.8417 19.6823 32.7222 19.9213C32.4308 20.5044 31.9029 20.9345 31.2728 21.1026L22.3797 23.474C21.7872 23.6322 21.1731 23.6943 20.5609 23.6583L16.2861 23.4067C15.6978 23.3721 15.1482 23.7 14.8991 24.234L11.4851 31.5553L4.97266 28.5186L8.45065 21.0609C8.92252 20.0485 9.93848 19.4014 11.0555 19.4014Z" fill="#D88A55"/>
<path d="M23.6079 20.0215C23.4863 20.5071 23.0356 20.8384 22.5351 20.8384H11.8559C11.2983 20.8384 10.7913 21.1606 10.5545 21.6654C9.62372 23.6503 7.34982 28.5186 7.34982 28.5186H4.97266L8.45038 21.0609C8.92224 20.0485 9.9382 19.4014 11.0552 19.4014H23.578C23.6447 19.5895 23.6637 19.7999 23.6079 20.0215Z" fill="#C57A44"/>
<path d="M4.74918 25.8724L6.13291 22.9047C6.30072 22.5452 6.72809 22.3895 7.08789 22.5573L14.6523 26.0847C15.0121 26.2523 15.1678 26.6799 15 27.0394L13.6162 30.0071C13.4484 30.3669 13.0208 30.5224 12.6613 30.3548L5.09662 26.8274C4.73709 26.6596 4.58136 26.2322 4.74918 25.8724Z" fill="#F7E6B0"/>
<path d="M6.88496 26.8691L8.26869 23.9014C8.43624 23.5419 8.86388 23.3862 9.22341 23.5537L14.6507 26.0847C15.0105 26.2522 15.1662 26.6799 14.9984 27.0394L13.6146 30.0071C13.4468 30.3669 13.0192 30.5223 12.6597 30.3548L7.23241 27.8238C6.8726 27.6563 6.71715 27.2286 6.88496 26.8691Z" fill="#FFF5F5"/>
<path d="M14.9166 30.594L12.7166 35.3121C8.33661 34.0486 4.65811 31.1312 2.40234 27.2786L3.36749 25.2085C3.61908 24.6691 4.26041 24.4356 4.79984 24.6872L14.3953 29.1616C14.9347 29.4132 15.1682 30.0543 14.9166 30.594Z" fill="#E43950"/>
<path d="M14.9163 30.5936L12.8165 35.0969C10.4166 34.2957 4.59491 27.9168 5.41311 26.1622C5.6647 25.6225 6.30603 25.3894 6.84546 25.6407L14.395 29.1612C14.9344 29.4128 15.1679 30.0539 14.9163 30.5936Z" fill="#EA5569"/>
<path d="M35.9999 18.4674C35.9999 19.0626 35.5173 19.5451 34.9221 19.5451H6.03577C5.44058 19.5451 4.95801 19.0626 4.95801 18.4674C4.95801 17.8719 5.44058 17.3893 6.03577 17.3893H6.51669C6.98938 10.0892 13.059 4.31396 20.4789 4.31396C27.8986 4.31396 33.9685 10.0892 34.4412 17.3893H34.9221C35.5173 17.3893 35.9999 17.8719 35.9999 18.4674Z" fill="#FDD78D"/>
<path d="M13.7427 27.0359C13.7427 27.4328 13.4211 27.7544 13.0242 27.7544C12.6273 27.7544 12.3057 27.4328 12.3057 27.0359C12.3057 26.639 12.6273 26.3174 13.0242 26.3174C13.4211 26.3174 13.7427 26.639 13.7427 27.0359Z" fill="#F5B65D"/>
<path d="M19.8612 15.806H34.2481C33.2733 10.4024 29.1963 6.07764 23.9272 4.74225C24.0176 4.62195 24.0717 4.47308 24.0717 4.31131C24.0717 3.91443 23.7501 3.5928 23.3532 3.5928V2.8743C23.3532 1.28952 22.0637 0 20.4789 0C18.8941 0 17.6046 1.28952 17.6046 2.8743V3.5928C17.2077 3.5928 16.8861 3.91443 16.8861 4.31131C16.8861 4.47336 16.9402 4.6225 17.0309 4.74252C16.236 4.9389 16.2451 4.99548 16.2121 5.02048C11.6434 8.50891 14.1129 15.806 19.8612 15.806ZM19.0419 2.8743C19.0419 2.08191 19.6865 1.43701 20.4789 1.43701C21.2713 1.43701 21.9159 2.08191 21.9159 2.8743V3.5928H19.0419V2.8743ZM35.9999 18.4672C35.9999 19.0624 35.5173 19.545 34.9221 19.545H9.62854C9.03336 19.545 8.55078 19.0624 8.55078 18.4672C8.55078 17.8717 9.03336 17.3892 9.62854 17.3892H34.9221C35.5173 17.3892 35.9999 17.8717 35.9999 18.4672Z" fill="#FFF2B4"/>
</g>
<defs>
<clipPath id="clip0">
<rect width="36" height="36" fill="white"/>
</clipPath>
</defs>
</svg>
