<svg width="20" height="20" viewBox="0 0 20 20" fill="none" xmlns="http://www.w3.org/2000/svg">
<path d="M2.29199 2.70825L4.02533 3.00825L4.82783 12.5691C4.89199 13.3499 5.54449 13.9491 6.32783 13.9466H15.4187C16.1662 13.9483 16.8003 13.3983 16.9062 12.6583L17.697 7.19325C17.7853 6.58242 17.3612 6.01575 16.7512 5.92742C16.6978 5.91992 4.30366 5.91575 4.30366 5.91575" stroke="#F5F5F7" stroke-width="1.8" stroke-linecap="round" stroke-linejoin="round"/>
<path d="M11.7705 8.99577H14.0813" stroke="#F5F5F7" stroke-width="1.5" stroke-linecap="round" stroke-linejoin="round"/>
<path fill-rule="evenodd" clip-rule="evenodd" d="M6.66634 16.6667C7.12743 16.6667 7.49967 17.0402 7.49967 17.4993C7.49967 17.96 7.12743 18.3334 6.66634 18.3334C6.20525 18.3334 5.83301 17.96 5.83301 17.4993C5.83301 17.0402 6.20525 16.6667 6.66634 16.6667Z" fill="#F5F5F7" stroke="#F5F5F7" stroke-width="1.5" stroke-linecap="round" stroke-linejoin="round"/>
<path fill-rule="evenodd" clip-rule="evenodd" d="M14.9996 16.6667C15.4602 16.6667 15.8337 17.0402 15.8337 17.4993C15.8337 17.96 15.4602 18.3334 14.9996 18.3334C14.5389 18.3334 14.167 17.96 14.167 17.4993C14.167 17.0402 14.5389 16.6667 14.9996 16.6667Z" fill="#F5F5F7" stroke="#F5F5F7" stroke-width="1.5" stroke-linecap="round" stroke-linejoin="round"/>
</svg>
