<svg width="99" height="99" viewBox="0 0 99 99" fill="none" xmlns="http://www.w3.org/2000/svg">
<path d="M49.655 98.6205C76.6979 98.6205 98.6205 76.6979 98.6205 49.655C98.6205 22.6121 76.6979 0.689453 49.655 0.689453C22.6121 0.689453 0.689453 22.6121 0.689453 49.655C0.689453 76.6979 22.6121 98.6205 49.655 98.6205Z" fill="#333336"/>
<mask id="mask0" style="mask-type:alpha" maskUnits="userSpaceOnUse" x="0" y="0" width="99" height="99">
<path d="M49.6646 98.6046C76.7031 98.6046 98.6222 76.6856 98.6222 49.647C98.6222 22.6085 76.7031 0.689453 49.6646 0.689453C22.6261 0.689453 0.707031 22.6085 0.707031 49.647C0.707031 76.6856 22.6261 98.6046 49.6646 98.6046Z" fill="#FCFCFC"/>
</mask>
<g mask="url(#mask0)">
<path d="M11.5815 43.7229C10.4743 43.724 9.39166 43.3965 8.47066 42.782C7.54961 42.1675 6.83158 41.2936 6.40741 40.2709C5.98324 39.2482 5.87199 38.1226 6.08774 37.0367C6.30348 35.9507 6.83658 34.9531 7.61948 34.1702C8.40239 33.3873 9.3999 32.8543 10.4859 32.6385C11.5718 32.4228 12.6974 32.534 13.7201 32.9582C14.7429 33.3824 15.6168 34.1004 16.2313 35.0214C16.8457 35.9424 17.1732 37.025 17.1721 38.1322C17.1694 39.6142 16.5795 41.0345 15.5317 42.0825C14.4838 43.1303 13.0634 43.7202 11.5815 43.7229ZM11.5815 33.1599C10.5978 33.1588 9.63595 33.4496 8.81754 33.9954C7.99919 34.5411 7.36108 35.3173 6.98395 36.2258C6.60677 37.1343 6.50758 38.1342 6.69885 39.0991C6.89017 40.064 7.36329 40.9505 8.0585 41.6464C8.7537 42.3423 9.63966 42.8164 10.6043 43.0087C11.569 43.201 12.5691 43.1028 13.478 42.7266C14.3869 42.3504 15.1637 41.7131 15.7103 40.8953C16.2569 40.0774 16.5487 39.1159 16.5487 38.1322C16.5473 36.8148 16.0237 35.5516 15.0926 34.6196C14.1615 33.6875 12.8989 33.1626 11.5815 33.1599Z" fill="#9A9FB2"/>
<path d="M11.5815 38.4414C11.5405 38.4421 11.4998 38.4346 11.4616 38.4194C11.4236 38.4042 11.3889 38.3815 11.3596 38.3527C11.3304 38.324 11.3071 38.2896 11.2912 38.2518C11.2754 38.2139 11.2672 38.1733 11.2672 38.1323V34.3759C11.2615 34.3316 11.2653 34.2866 11.2784 34.2439C11.2914 34.2012 11.3134 34.1617 11.343 34.1282C11.3724 34.0947 11.4088 34.0678 11.4495 34.0494C11.4901 34.031 11.5343 34.0215 11.579 34.0215C11.6236 34.0215 11.6678 34.031 11.7085 34.0494C11.7492 34.0678 11.7855 34.0947 11.815 34.1282C11.8445 34.1617 11.8665 34.2012 11.8796 34.2439C11.8926 34.2866 11.8964 34.3316 11.8907 34.3759V37.7767L14.7505 37.4367C14.8325 37.4271 14.9149 37.4505 14.9797 37.5017C15.0444 37.5529 15.0861 37.6278 15.0957 37.7097C15.1053 37.7917 15.0819 37.8742 15.0307 37.9389C14.9794 38.0037 14.9046 38.0454 14.8226 38.055L11.6176 38.4414H11.5815Z" fill="#9A9FB2"/>
<path d="M14.6702 63.0504H11.9885C11.9291 63.0504 11.8721 63.0267 11.8301 62.9849C11.7881 62.9427 11.7645 62.886 11.7645 62.8267V60.7456H9.68526C9.65599 60.7456 9.62703 60.7399 9.60009 60.7286C9.57309 60.7172 9.54861 60.7007 9.5281 60.6796C9.50759 60.659 9.49141 60.6343 9.48059 60.6069C9.46972 60.5802 9.46436 60.5508 9.46488 60.5219V57.8425C9.46436 57.8131 9.46972 57.7843 9.48059 57.757C9.49141 57.7302 9.50759 57.7055 9.5281 57.6843C9.54861 57.6637 9.57309 57.6472 9.60009 57.6359C9.62703 57.6246 9.65599 57.6189 9.68526 57.6189H11.7645V55.5449C11.7645 55.4857 11.7881 55.429 11.8301 55.3867C11.8721 55.345 11.9291 55.3213 11.9885 55.3213H14.6702C14.7296 55.3213 14.7867 55.345 14.8286 55.3867C14.8707 55.429 14.8943 55.4857 14.8943 55.5449V57.6189H16.9698C17.0293 57.6189 17.0863 57.6421 17.1283 57.6843C17.1703 57.7261 17.1939 57.7833 17.1939 57.8425V60.5219C17.1939 60.5812 17.1703 60.6379 17.1283 60.6801C17.0863 60.7219 17.0293 60.7456 16.9698 60.7456H14.8943V62.819C14.8953 62.8494 14.8902 62.8793 14.8794 62.9071C14.8686 62.9349 14.8522 62.9607 14.8313 62.9824C14.8104 63.004 14.7854 63.021 14.7577 63.0329C14.73 63.0442 14.7002 63.0504 14.6702 63.0504ZM12.209 62.6062H14.4461V60.5291C14.4471 60.4704 14.4711 60.4142 14.513 60.373C14.5549 60.3318 14.6114 60.3086 14.6702 60.3086H16.7494V58.0739H14.6702C14.6111 58.0728 14.5546 58.0491 14.5128 58.0074C14.471 57.9657 14.4471 57.909 14.4461 57.8497V55.7727H12.209V57.8497C12.209 57.9085 12.1859 57.9651 12.1447 58.0069C12.1034 58.0486 12.0473 58.0728 11.9885 58.0739H9.90935V60.3086H11.9885C12.0175 60.3086 12.0461 60.3148 12.0729 60.3256C12.0996 60.3364 12.1239 60.3529 12.1444 60.3735C12.1649 60.3936 12.1811 60.4178 12.1922 60.4446C12.2033 60.4714 12.209 60.5003 12.209 60.5291V62.6062Z" fill="#9A9FB2"/>
<path d="M70.6873 28.682C68.8911 28.6951 67.1284 28.1945 65.6068 27.2392L61.4228 28.2698C61.3568 28.2843 61.2877 28.28 61.2239 28.2572C61.1605 28.2344 61.1043 28.1941 61.0621 28.1409C61.0214 28.0867 60.9971 28.0218 60.993 27.9541C60.9884 27.8864 61.0033 27.8188 61.0363 27.7596L63.0149 24.23C62.7398 23.5776 62.596 22.8771 62.5924 22.1689C62.6115 21.2638 62.8382 20.3751 63.254 19.5712C63.6704 18.7672 64.2655 18.0694 64.9936 17.5315C66.6394 16.3069 68.636 15.6455 70.6873 15.6455C72.7386 15.6455 74.7353 16.3069 76.3811 17.5315C77.1257 18.0545 77.7326 18.7488 78.1521 19.556C78.5715 20.3631 78.7905 21.2593 78.7905 22.1689C78.7905 23.0785 78.5715 23.9747 78.1521 24.7819C77.7326 25.589 77.1257 26.2834 76.3811 26.8064C74.7487 28.0549 72.7422 28.7158 70.6873 28.682ZM65.6686 26.5178C65.7381 26.5175 65.8062 26.5372 65.8644 26.5745C67.2984 27.5071 68.9771 27.9931 70.6873 27.9709C74.7683 27.9709 78.0866 25.3585 78.0866 22.1483C78.0866 18.9382 74.7683 16.3258 70.6873 16.3258C66.6064 16.3258 63.288 18.9382 63.288 22.1483C63.2891 22.8224 63.4349 23.4885 63.7157 24.1012C63.7399 24.1501 63.7523 24.2039 63.7523 24.2584C63.7523 24.3128 63.7399 24.3666 63.7157 24.4155L62.0462 27.3938L65.5965 26.5127C65.6227 26.51 65.6485 26.5117 65.6737 26.5178H65.6686Z" fill="#9A9FB2"/>
<path d="M74.2482 23.7817C73.9602 23.7817 73.6778 23.6961 73.4382 23.5359C73.1986 23.3757 73.0116 23.1479 72.9013 22.8815C72.7905 22.615 72.7617 22.3218 72.8183 22.039C72.8745 21.7561 73.0131 21.4962 73.2172 21.2923C73.4212 21.0884 73.6809 20.9495 73.9638 20.8933C74.2467 20.837 74.5399 20.8658 74.8063 20.9762C75.0727 21.0866 75.3004 21.2735 75.4606 21.5133C75.6209 21.7531 75.7064 22.0351 75.7064 22.3235C75.7054 22.7098 75.5513 23.0799 75.2777 23.3531C75.0046 23.6262 74.6347 23.7803 74.2482 23.7817ZM74.2482 21.5402C74.0931 21.5392 73.9411 21.5843 73.8118 21.6697C73.6824 21.7552 73.5809 21.8771 73.5212 22.0201C73.4609 22.1632 73.4449 22.3208 73.4743 22.473C73.5042 22.6253 73.5784 22.7654 73.6876 22.8754C73.7968 22.9855 73.9365 23.0606 74.0885 23.0912C74.2405 23.1219 74.3982 23.1066 74.5419 23.0475C74.6852 22.9884 74.8078 22.888 74.8939 22.7591C74.9804 22.6302 75.0263 22.4786 75.0263 22.3235C75.0263 22.1166 74.9443 21.9182 74.799 21.7714C74.6532 21.6247 74.4554 21.5416 74.2482 21.5402Z" fill="#9A9FB2"/>
<path d="M70.6877 23.7817C70.3991 23.7817 70.1173 23.6961 69.8777 23.5359C69.6381 23.3757 69.451 23.1479 69.3408 22.8815C69.23 22.615 69.2011 22.3218 69.2578 22.039C69.314 21.7561 69.4526 21.4962 69.6566 21.2923C69.8607 21.0884 70.1204 20.9495 70.4032 20.8933C70.6861 20.837 70.9793 20.8658 71.2457 20.9762C71.5121 21.0866 71.7399 21.2735 71.9001 21.5133C72.0604 21.7531 72.1459 22.0351 72.1459 22.3235C72.1449 22.7098 71.9908 23.0799 71.7172 23.3531C71.4441 23.6262 71.0741 23.7803 70.6877 23.7817ZM70.6877 21.5402C70.5331 21.5402 70.3816 21.5862 70.2528 21.6722C70.124 21.7583 70.0235 21.8806 69.9642 22.0237C69.905 22.1668 69.8895 22.3243 69.9194 22.4762C69.9498 22.6282 70.0245 22.7677 70.1338 22.8773C70.2435 22.9868 70.3831 23.0614 70.5352 23.0916C70.6872 23.1218 70.8443 23.1063 70.9876 23.0471C71.1308 22.9877 71.2529 22.8874 71.339 22.7586C71.425 22.6298 71.4709 22.4783 71.4709 22.3235C71.4709 22.2206 71.4508 22.1187 71.4116 22.0237C71.3719 21.9287 71.3142 21.8423 71.2416 21.7696C71.1689 21.6969 71.0824 21.6392 70.9876 21.5999C70.8922 21.5605 70.7907 21.5402 70.6877 21.5402Z" fill="#9A9FB2"/>
<path d="M67.1472 23.7816C66.8607 23.7774 66.5819 23.689 66.3449 23.5272C66.1084 23.3654 65.9249 23.1375 65.8167 22.8719C65.709 22.6063 65.6822 22.3148 65.7389 22.0339C65.7956 21.753 65.9342 21.495 66.1372 21.2923C66.3397 21.0897 66.5974 20.9512 66.8787 20.8943C67.1595 20.8373 67.4512 20.8645 67.7165 20.9723C67.9819 21.0801 68.2102 21.2638 68.372 21.5004C68.5338 21.7371 68.6219 22.0161 68.626 22.3027C68.6291 22.4977 68.5925 22.6912 68.5193 22.8719C68.4462 23.0525 68.3369 23.2167 68.1993 23.3546C68.0613 23.4924 67.8974 23.6013 67.7165 23.6746C67.5357 23.748 67.3424 23.7843 67.1472 23.7816ZM67.1472 21.5401C66.9926 21.5401 66.8411 21.586 66.7123 21.6721C66.5835 21.7581 66.483 21.8805 66.4237 22.0236C66.3645 22.1667 66.349 22.3242 66.3794 22.4761C66.4093 22.6281 66.484 22.7676 66.5938 22.8771C66.703 22.9866 66.8426 23.0613 66.9946 23.0915C67.1466 23.1217 67.3038 23.1062 67.4471 23.0469C67.5903 22.9876 67.7124 22.8872 67.7985 22.7584C67.8845 22.6297 67.9304 22.4782 67.9304 22.3233C67.9293 22.116 67.8464 21.9176 67.6995 21.771C67.5532 21.6244 67.3548 21.5415 67.1472 21.5401Z" fill="#9A9FB2"/>
<path d="M78.0148 33.4897H61.7683C61.6925 33.4799 61.623 33.4429 61.5725 33.3855C61.522 33.3282 61.4941 33.2543 61.4941 33.178C61.4941 33.1015 61.522 33.0278 61.5725 32.9703C61.623 32.913 61.6925 32.8759 61.7683 32.8662H78.0148C78.0905 32.8759 78.1606 32.913 78.2106 32.9703C78.2611 33.0278 78.2889 33.1015 78.2889 33.178C78.2889 33.2543 78.2611 33.3282 78.2106 33.3855C78.1606 33.4429 78.0905 33.4799 78.0148 33.4897Z" fill="#9A9FB2"/>
<path d="M32.8374 11.8945C32.3928 11.8945 31.9583 11.7626 31.5887 11.5155C31.2191 11.2685 30.9312 10.9173 30.7613 10.5065C30.5914 10.0957 30.5473 9.64371 30.6344 9.20774C30.7215 8.77182 30.9359 8.37151 31.2507 8.05755C31.5654 7.74355 31.9661 7.53002 32.4023 7.44392C32.8384 7.35782 33.2903 7.403 33.7007 7.57387C34.1111 7.74468 34.4616 8.03344 34.7079 8.40356C34.9541 8.77368 35.085 9.20857 35.084 9.65309C35.084 9.94788 35.0258 10.2398 34.9129 10.512C34.7999 10.7843 34.6344 11.0317 34.4257 11.2399C34.217 11.448 33.9692 11.613 33.6967 11.7254C33.4242 11.8377 33.1322 11.8952 32.8374 11.8945ZM32.8374 8.03514C32.5174 8.03514 32.2046 8.13005 31.9385 8.30782C31.6724 8.48559 31.4651 8.73828 31.3426 9.03394C31.2201 9.32955 31.1881 9.6549 31.2505 9.96875C31.313 10.2826 31.467 10.5709 31.6933 10.7972C31.9196 11.0235 32.2079 11.1775 32.5217 11.24C32.8356 11.3024 33.1609 11.2703 33.4565 11.1479C33.7522 11.0254 34.0049 10.8181 34.1827 10.552C34.3604 10.2859 34.4554 9.97308 34.4554 9.65309C34.4554 9.22397 34.2849 8.81248 33.9815 8.50903C33.678 8.20559 33.2665 8.03514 32.8374 8.03514Z" fill="#9A9FB2"/>
<path d="M20.1247 17.3028H-25.7344C-25.7787 17.3085 -25.8237 17.3047 -25.8664 17.2917C-25.9091 17.2786 -25.9486 17.2566 -25.9821 17.2271C-26.0156 17.1976 -26.0425 17.1613 -26.0609 17.1206C-26.0793 17.0799 -26.0889 17.0357 -26.0889 16.9911C-26.0889 16.9464 -26.0793 16.9022 -26.0609 16.8615C-26.0425 16.8208 -26.0156 16.7846 -25.9821 16.755C-25.9486 16.7256 -25.9091 16.7036 -25.8664 16.6905C-25.8237 16.6774 -25.7787 16.6736 -25.7344 16.6793H20.1247C20.2005 16.6891 20.2701 16.7261 20.3206 16.7835C20.3711 16.8409 20.3989 16.9147 20.3989 16.9911C20.3989 17.0675 20.3711 17.1413 20.3206 17.1986C20.2701 17.256 20.2005 17.2931 20.1247 17.3028Z" fill="#9A9FB2"/>
<path d="M56.5342 45.9434C56.5342 45.9434 60.7903 49.2256 63.4234 57.8513C66.0564 66.4769 65.9997 76.0352 69.4005 77.6944C72.8013 79.3536 84.2197 62.6742 84.1115 67.729C84.0033 72.7838 73.8061 93.2968 66.5511 89.8084C59.296 86.32 58.5128 64.8281 58.5128 64.8281L56.5342 45.9434Z" fill="#6DAEF7"/>
<path d="M91.5439 60.2123C91.5439 60.2123 88.0833 69.1492 83.0053 71.0954C82.6333 71.2355 82.2247 71.2453 81.8465 71.1237C81.4677 71.0021 81.1416 70.7563 80.9205 70.426L79.0449 67.5869C79.0449 67.5869 85.5095 60.0273 91.5439 60.2123Z" fill="#FFC2A9"/>
<path d="M78.5762 70.2332L78.9822 70.5366C79.0863 70.6124 79.2115 70.6541 79.3403 70.6562C79.4691 70.6583 79.5954 70.6201 79.7015 70.5475C81.7183 69.1351 91.511 62.3129 93.2088 60.932C93.2856 60.8691 93.3454 60.7877 93.384 60.696C93.4222 60.6043 93.4371 60.5043 93.4278 60.4054L92.8487 53.7393C92.8332 53.578 92.7554 53.4286 92.6317 53.323L92.0804 52.8525L92.6312 60.0261L78.5762 70.2332Z" fill="#453F3F"/>
<path d="M78.5477 70.1328L77.7676 63.5141C77.7789 63.342 77.8289 63.1745 77.9144 63.0246C77.9994 62.8752 78.118 62.7469 78.2607 62.6495L91.582 52.9629C91.8824 52.7413 92.1504 52.7764 92.1813 53.0325L92.9614 59.6516C92.9532 59.8237 92.9047 59.9912 92.8197 60.1411C92.7352 60.2911 92.6167 60.4194 92.4734 60.5152L79.1629 70.2049C78.8466 70.4244 78.5786 70.3894 78.5477 70.1328Z" fill="#0C0B0B"/>
<path d="M81.0603 67.3265L80.4971 62.5113C80.5063 62.3397 80.5553 62.1723 80.6398 62.0223C80.7243 61.8724 80.8423 61.7446 80.985 61.6482L90.8638 54.4648C91.1642 54.2433 91.4322 54.2783 91.4631 54.5344L92.0314 59.3486C92.0222 59.5207 91.9737 59.6876 91.8892 59.8376C91.8042 59.9875 91.6862 60.1158 91.5435 60.2122L81.6595 67.3961C81.3596 67.6182 81.0912 67.5826 81.0603 67.3265Z" fill="#453F3F"/>
<path d="M79.5588 66.6095C79.0956 66.945 78.6782 66.895 78.6318 66.4946C78.6468 66.2293 78.7225 65.9706 78.8529 65.7392C78.9833 65.5079 79.1657 65.309 79.3846 65.1591C79.8479 64.8241 80.2652 64.8741 80.3116 65.274C80.2967 65.5393 80.2209 65.798 80.0906 66.0293C79.9597 66.2612 79.7778 66.4596 79.5588 66.6095Z" fill="#453F3F"/>
<path d="M80.6515 61.0753C80.6515 61.0753 79.8729 58.4829 81.6099 57.4617C83.3469 56.4399 86.6802 56.5429 86.6802 56.5429C87.8395 57.7105 85.5409 58.6087 82.674 59.463L80.6515 61.0753Z" fill="#FFC2A9"/>
<path d="M85.3486 66.5972C85.3486 66.5972 86.9192 67.5489 87.5834 66.6745C88.2471 65.8001 87.5437 63.3041 87.2366 62.4483C86.93 61.5929 86.2493 63.5906 86.3385 64.5434C86.3555 65.0195 86.3225 65.4956 86.2395 65.9645L85.3486 66.5972Z" fill="#FFC2A9"/>
<path d="M87.8711 64.5387C87.8711 64.5387 89.538 65.4723 90.3192 64.4356C91.0998 63.3984 90.2759 60.4371 89.9332 59.4153C89.5911 58.3935 88.6837 60.7834 88.8656 61.9025C89.047 63.0217 88.6219 63.4494 88.6219 63.4494L87.8711 64.5387Z" fill="#FFC2A9"/>
<path d="M89.2354 63.542C89.2354 63.542 90.7054 64.37 91.3979 63.4539C92.091 62.5377 91.3603 59.9207 91.0398 59.0205C90.7199 58.1203 89.9335 60.2262 90.0917 61.2135C90.2494 62.2007 89.8784 62.5821 89.8784 62.5821L89.2354 63.542Z" fill="#FFC2A9"/>
<path d="M86.4531 66.1041C86.4531 66.1041 88.12 67.0378 88.9006 66.001C89.6818 64.9643 88.8574 62.0031 88.5152 60.9808C88.1731 59.959 87.2652 62.3488 87.446 63.4628C87.6269 64.5768 87.2039 65.0148 87.2039 65.0148L86.4531 66.1041Z" fill="#FFC2A9"/>
<path d="M65.0362 82.9397C64.9955 82.9392 64.9558 82.9294 64.9192 82.9113C64.8826 82.8938 64.8507 82.868 64.8249 82.8366C64.7801 82.7804 64.7595 82.7088 64.7672 82.6377C64.7749 82.5661 64.8105 82.5007 64.8661 82.4553C65.8766 81.6804 66.986 81.043 68.1639 80.5591C68.1979 80.5457 68.234 80.5396 68.27 80.5401C68.3066 80.5411 68.3422 80.5488 68.3757 80.5638C68.4086 80.5782 68.4385 80.5993 68.4638 80.6251C68.489 80.6514 68.5086 80.6823 68.522 80.7163C68.5354 80.7503 68.5416 80.7864 68.5411 80.8224C68.54 80.859 68.5323 80.8946 68.5174 80.9281C68.5029 80.961 68.4818 80.9914 68.4555 81.0162C68.4298 81.0414 68.3988 81.061 68.3648 81.0744C67.24 81.5387 66.1801 82.1467 65.2114 82.883C65.1609 82.9211 65.0991 82.9412 65.0362 82.9397Z" fill="#5892E6"/>
<path d="M67.7561 81.3121C67.7272 81.3172 67.6973 81.3172 67.6685 81.3121C66.9347 81.0627 66.1701 80.9168 65.3961 80.8792C65.3235 80.8792 65.2544 80.8504 65.2029 80.7994C65.1519 80.7478 65.123 80.6788 65.123 80.6061C65.123 80.5335 65.1519 80.4644 65.2029 80.4129C65.2544 80.3619 65.3235 80.333 65.3961 80.333C66.2298 80.365 67.0548 80.5195 67.8437 80.7916C67.9112 80.8164 67.9663 80.8658 67.9977 80.9302C68.0297 80.9947 68.0353 81.0683 68.0137 81.1369C67.9941 81.1894 67.9591 81.2343 67.9127 81.2657C67.8669 81.2971 67.8117 81.3136 67.7561 81.3121Z" fill="#5892E6"/>
<path d="M30.487 97.0788C30.487 97.0788 29.5595 105.586 31.4763 110.332C33.3932 115.077 58.4663 112.733 64.866 108.492C67.4939 106.756 61.9753 90.5967 61.9753 90.5967L30.487 97.0788Z" fill="#0C0B0B"/>
<path d="M50.7526 110.868C50.754 110.909 50.7472 110.95 50.7327 110.989C50.7181 111.028 50.6961 111.063 50.6679 111.093C50.6397 111.123 50.6058 111.148 50.5681 111.165C50.5305 111.182 50.4899 111.191 50.4486 111.192C50.4072 111.196 50.3654 111.191 50.3259 111.178C50.2864 111.165 50.2499 111.144 50.2186 111.117C50.1874 111.089 50.1619 111.056 50.1439 111.018C50.1259 110.981 50.1156 110.941 50.1137 110.899C50.057 109.734 49.9952 108.544 49.923 107.354C49.923 107.142 49.923 106.931 49.8869 106.725C49.6499 102.835 49.3408 98.996 49.1089 96.3166C49.1089 96.1001 49.0728 95.8889 49.0522 95.6828C49.0007 95.0954 48.9543 94.5698 48.9131 94.137L49.552 94.0391C49.5932 94.4822 49.6396 95.0129 49.6911 95.5849C49.6911 95.7858 49.7272 96.0022 49.7478 96.2187C49.9745 98.8929 50.2631 102.675 50.5207 106.524C50.5207 106.735 50.5465 106.952 50.562 107.163C50.6392 108.42 50.7011 109.657 50.7526 110.868Z" fill="#453F3F"/>
<path d="M51.6696 106.745C51.306 106.915 50.9306 107.058 50.5463 107.173C50.3453 107.235 50.1289 107.286 49.9073 107.333C49.7064 107.369 49.5033 107.394 49.2993 107.405C48.9318 107.438 48.5618 107.38 48.2224 107.235C48.0301 107.142 47.8632 107.004 47.7358 106.832C47.6084 106.661 47.5243 106.461 47.4907 106.251C47.264 105.05 46.79 100.093 46.4602 96.5894C46.4396 96.373 46.419 96.1617 46.3983 95.9556C46.352 95.3991 46.3056 94.889 46.2695 94.4562L46.9085 94.3789C46.9445 94.8117 46.9909 95.327 47.0424 95.899C47.0424 96.0999 47.0785 96.3112 47.0991 96.5276C47.4186 100.021 47.8875 104.973 48.1297 106.132C48.143 106.248 48.1854 106.359 48.2529 106.455C48.3205 106.55 48.411 106.627 48.5161 106.678C48.9562 106.826 49.431 106.835 49.8764 106.704C50.0928 106.658 50.3093 106.596 50.5102 106.534C50.811 106.438 51.1053 106.323 51.3913 106.189C51.4681 106.152 51.5561 106.147 51.6367 106.174C51.7173 106.201 51.7845 106.258 51.8241 106.333C51.8421 106.37 51.8523 106.41 51.8542 106.452C51.8561 106.493 51.8497 106.534 51.8352 106.572C51.8207 106.611 51.7986 106.646 51.7701 106.676C51.7417 106.706 51.7074 106.729 51.6696 106.745Z" fill="#453F3F"/>
<path d="M40.0035 98.9546C39.6491 100.613 39.0444 102.208 38.2104 103.685C37.4115 105.151 36.2716 106.404 34.8869 107.338C33.6572 108.125 32.2247 108.537 30.7647 108.523C30.7647 108.307 30.7286 108.09 30.708 107.884C32.0628 107.902 33.3932 107.524 34.5365 106.797C35.7894 105.948 36.8254 104.817 37.5611 103.494C38.3958 102.041 39.004 100.468 39.3646 98.831C39.3686 98.7856 39.3821 98.7418 39.4042 98.7022C39.4263 98.6625 39.4565 98.6274 39.4928 98.6001C39.5292 98.5728 39.5709 98.5538 39.6152 98.5435C39.6595 98.5331 39.7055 98.5326 39.7501 98.5409C39.7947 98.5496 39.837 98.5677 39.8743 98.5939C39.9115 98.6202 39.9429 98.6537 39.9663 98.6929C39.9896 98.7315 40.0046 98.7753 40.0102 98.8202C40.0157 98.8655 40.0117 98.9113 39.9984 98.9546H40.0035Z" fill="#453F3F"/>
<path d="M49.8818 43.7946C49.8818 43.7946 53.3135 36.8745 46.0894 33.0048C41.0346 30.2945 31.2547 29.7638 28.2455 35.911C25.4476 41.6253 31.6721 46.4689 31.6721 46.4689C31.6721 46.4689 45.0331 49.375 49.8818 43.7946Z" fill="#6DAEF7"/>
<path d="M38.1232 35.7256C38.1232 35.7256 31.8575 36.5552 34.1144 39.9044C35.3098 41.6718 42.0856 42.6611 42.0856 42.6611C42.0856 42.6611 43.4253 36.55 38.1232 35.7256Z" fill="#5499E6"/>
<path d="M64.098 98.944C64.098 98.944 40.8799 106.647 30.9042 102.721C30.9042 102.721 27.7765 101.732 26.5399 95.5948C26.4987 95.3938 26.4626 95.1877 26.4265 94.9765C25.9112 91.9364 25.8443 87.7627 26.746 81.9452C27.8281 74.9994 26.3801 71.444 25.7824 64.5188C25.7824 64.2766 25.7361 64.0035 25.7206 63.7716C25.6536 63.0245 25.5969 62.2258 25.5351 61.4014C24.8962 52.2604 22.0055 48.3392 26.5656 45.6444C29.9382 43.7637 33.4652 42.1743 37.1081 40.8936C37.1081 40.8936 42.1835 42.5218 45.7698 40.9245C45.7698 40.9245 51.2059 43.6142 55.3899 45.1548C59.5739 46.6955 58.1518 57.7584 59.4451 64.1168C60.7384 70.4753 62.9593 75.5404 64.9431 86.0932C66.7517 95.7391 64.098 98.944 64.098 98.944Z" fill="#6DAEF7"/>
<path d="M46.3053 46.3819C46.2369 46.3881 46.169 46.367 46.1163 46.3227C46.0637 46.2789 46.0306 46.216 46.0245 46.1475C46.0183 46.0789 46.0395 46.0109 46.0835 45.9584C46.1275 45.9058 46.1906 45.8728 46.2589 45.8666C48.6703 45.439 49.8658 43.1666 49.8658 43.146C49.9021 43.0938 49.9561 43.0565 50.0177 43.0411C50.0794 43.0256 50.1446 43.0331 50.2012 43.062C50.2578 43.0909 50.302 43.1394 50.3256 43.1984C50.3492 43.2575 50.3506 43.3231 50.3295 43.383C50.278 43.4861 49.0104 45.9079 46.3516 46.3768L46.3053 46.3819Z" fill="#5892E6"/>
<path d="M38.1279 59.4078L38.5968 64.7614L53.9262 63.6021L52.973 58.6143L38.1279 59.4078Z" fill="#5892E6"/>
<path d="M64.6954 85.1506C64.6109 85.1485 64.53 85.115 64.4682 85.0573C64.4063 84.9991 64.3682 84.9207 64.3605 84.8362C64.1801 82.1774 62.1809 75.4222 60.9906 71.3877C60.7587 70.6044 60.5578 69.9243 60.4135 69.4193C59.5479 66.3947 58.5791 59.2942 58.5379 58.9902C58.5323 58.947 58.5353 58.9026 58.5467 58.8604C58.558 58.8181 58.5776 58.779 58.6044 58.7445C58.6312 58.7099 58.6647 58.6811 58.7028 58.6594C58.7409 58.6378 58.7832 58.6244 58.8265 58.6192C58.9141 58.6074 59.0022 58.6306 59.0728 58.6837C59.1434 58.7367 59.1897 58.8156 59.2026 58.9026C59.2026 58.9748 60.2022 66.2607 61.0524 69.2081C61.1967 69.7233 61.3977 70.388 61.6295 71.1712C62.8301 75.2367 64.8397 82.0332 65.0303 84.7641C65.0329 84.8079 65.0272 84.8522 65.0128 84.8939C64.9984 84.9357 64.9762 84.9743 64.9469 85.0073C64.918 85.0403 64.8824 85.0671 64.8428 85.0867C64.8031 85.1057 64.7598 85.1171 64.716 85.1196L64.6954 85.1506Z" fill="#5892E6"/>
<path d="M65.2782 95.7344C65.2782 95.7344 66.2572 98.7693 64.8505 100.805C64.8505 100.805 43.9923 107.957 30.0336 104.53C30.0336 104.53 28.7815 103.01 28.4414 99.8926C28.4414 99.8978 45.2341 104.138 65.2782 95.7344Z" fill="#5892E6"/>
<path d="M43.8994 51.6991C45.0013 51.7048 46.079 51.375 46.9892 50.7541C47.8994 50.1327 48.5991 49.2495 48.9953 48.221C49.0058 48.1896 49.01 48.1561 49.0077 48.1231C49.0053 48.0901 48.9965 48.0577 48.9817 48.0283C48.9668 47.9984 48.9463 47.9721 48.9212 47.9505C48.8962 47.9289 48.8671 47.9119 48.8356 47.9016C48.8042 47.8912 48.7709 47.8871 48.7379 47.8892C48.7048 47.8918 48.6725 47.9005 48.6428 47.9155C48.6132 47.9299 48.5867 47.9505 48.5649 47.9758C48.5432 48.0005 48.5266 48.0299 48.5161 48.0613C48.1355 49.0532 47.4399 49.8926 46.5361 50.4511C45.6323 51.0097 44.5702 51.256 43.5129 51.1529C39.5659 50.8953 34.5059 48.2674 34.4544 48.2416C34.395 48.2107 34.3257 48.205 34.262 48.2251C34.1982 48.2458 34.1451 48.2906 34.1143 48.3498C34.085 48.4096 34.0798 48.4781 34.1 48.5415C34.1202 48.6049 34.1641 48.658 34.2226 48.6899C34.4338 48.7981 39.4268 51.3899 43.4974 51.6579L43.8994 51.6991Z" fill="#5892E6"/>
<path d="M59.2445 82.9402C59.2445 82.9402 62.2073 88.7937 61.2077 93.3435C61.2077 93.3435 50.0727 98.4962 36.9436 95.8271C37.1116 92.1873 37.0479 88.5402 36.7529 84.9085C36.7529 84.9085 51.1548 82.7805 59.2445 82.9402Z" fill="#5892E6"/>
<path d="M45.9554 39.1166L45.7235 41.4096C45.4231 41.552 45.1322 41.7138 44.8527 41.8939C42.0806 44.2178 38.4634 41.662 36.6084 39.8328L37.4534 32.5469L44.9403 38.3437L45.9554 39.1166Z" fill="#FFC2A9"/>
<path d="M45.9554 39.1161L45.7235 41.4091C45.4439 41.589 45.153 41.7508 44.8527 41.8934C41.6013 40.2034 39.499 36.3955 39.499 36.3955L44.9403 38.3278L45.9554 39.1161Z" fill="#EEA98D"/>
<path d="M35.6141 26.6258C34.8989 25.762 34.3975 24.7416 34.1507 23.6475C33.8828 22.0502 35.5213 21.0145 35.5213 21.0145C35.2951 20.6235 35.1891 20.1745 35.2166 19.7237C35.2441 19.2727 35.4038 18.84 35.6759 18.4794C36.7064 16.9026 39.1849 17.0675 39.1849 17.0675C39.1849 17.0675 38.6387 15.7433 40.2927 14.8416C41.9468 13.9398 43.6472 15.3981 43.6472 15.3981C43.8442 14.9187 44.1747 14.5061 44.5995 14.2092C45.0243 13.9124 45.5254 13.7437 46.0432 13.7234C47.8672 13.641 48.2588 15.4599 48.2588 15.4599C48.2588 15.4599 52.1285 13.8059 53.8547 16.3049C56.3899 19.9582 50.8867 22.0193 50.8867 22.0193C42.1683 19.0771 36.0211 27.0741 36.0211 27.0741L35.6038 26.6258" fill="#184655"/>
<path d="M49.0625 20.2314C49.0625 20.2314 55.1479 23.7147 51.0566 28.3367C51.0566 28.3367 48.7791 21.7257 49.0625 20.2314Z" fill="#184655"/>
<path d="M49.8617 29.2539C49.8617 29.2539 51.3251 27.8472 51.9228 29.46C52.5205 31.0728 51.6136 34.1283 49.6865 33.4173L49.8617 29.2539Z" fill="#F59876"/>
<path d="M50.6962 34.7885C50.6962 34.7885 50.217 39.529 45.291 39.0137C40.365 38.4984 37.4485 34.3093 37.2939 34.0929L37.3455 33.0932L37.598 27.8941L37.7319 25.1168C37.7319 25.1168 37.6134 20.0775 42.4364 19.655C45.9557 19.3458 49.1349 20.2527 50.588 22.2313C51.1438 22.9852 51.4338 23.9022 51.4124 24.8386L51.0569 29.8161L50.9693 31.0373L50.6962 34.7885Z" fill="#FFC2A9"/>
<path d="M46.5169 30.8929C46.478 30.8966 46.4392 30.8855 46.4082 30.8618C46.3772 30.838 46.3564 30.8034 46.3498 30.7649C46.3433 30.7264 46.3516 30.6868 46.373 30.6542C46.3945 30.6215 46.4275 30.5982 46.4654 30.5889L47.9288 30.0736L47.0889 29.311C47.0724 29.2972 47.0592 29.2798 47.0503 29.2602C47.0413 29.2406 47.037 29.2192 47.0374 29.1977V26.0442C47.0374 26.0032 47.0537 25.9639 47.0826 25.9349C47.1116 25.9059 47.1509 25.8896 47.192 25.8896C47.2329 25.8896 47.2722 25.9059 47.3012 25.9349C47.3303 25.9639 47.3465 26.0032 47.3465 26.0442V29.1359L48.3359 30.0273C48.3553 30.0453 48.3698 30.0681 48.3779 30.0933C48.3861 30.1186 48.3876 30.1455 48.3822 30.1715C48.3777 30.1981 48.3662 30.223 48.3491 30.2438C48.3319 30.2646 48.3095 30.2806 48.2843 30.2901L46.5685 30.8929H46.5169Z" fill="#0C0B0B"/>
<path d="M45.6515 34.3084C45.2744 34.2141 44.9226 34.0382 44.6209 33.7932C44.5967 33.7766 44.5763 33.755 44.5611 33.7299C44.5459 33.7048 44.5362 33.6768 44.5327 33.6476C44.5292 33.6185 44.532 33.5889 44.5409 33.5609C44.5497 33.5329 44.5644 33.5072 44.584 33.4853C44.6036 33.4635 44.6277 33.4461 44.6546 33.4343C44.6814 33.4226 44.7105 33.4166 44.7399 33.417C44.7692 33.4174 44.7982 33.424 44.8247 33.4364C44.8513 33.4489 44.875 33.4668 44.894 33.4891C45.1379 33.6925 45.4238 33.8391 45.7312 33.9184C46.0387 33.9977 46.3599 34.0077 46.6717 33.9477C46.7208 33.9439 46.7697 33.9578 46.8094 33.9869C46.8491 34.016 46.8772 34.0584 46.8883 34.1063C46.8996 34.1543 46.8932 34.2047 46.8705 34.2483C46.8478 34.292 46.8102 34.3262 46.7645 34.3445C46.396 34.4229 46.0141 34.4105 45.6515 34.3084Z" fill="#F59876"/>
<path d="M46.5172 33.2572C46.0437 33.2271 45.5854 33.0782 45.1846 32.8243C44.7839 32.5703 44.4536 32.2195 44.2242 31.8041C44.2093 31.7766 44.2001 31.7462 44.1973 31.715C44.1944 31.6837 44.1979 31.6522 44.2076 31.6224C44.2172 31.5926 44.2329 31.565 44.2535 31.5413C44.2741 31.5177 44.2993 31.4985 44.3276 31.4849C44.3558 31.4713 44.3866 31.4635 44.4179 31.4621C44.4492 31.4608 44.4806 31.4658 44.5099 31.4768C44.5393 31.4879 44.566 31.5048 44.5887 31.5265C44.6113 31.5482 44.6293 31.5743 44.6416 31.6032C44.6725 31.6702 45.4815 33.2726 47.6044 32.6646C47.6335 32.6561 47.664 32.6534 47.6942 32.6568C47.7243 32.6602 47.7535 32.6697 47.7799 32.6846C47.8063 32.6995 47.8295 32.7195 47.848 32.7435C47.8665 32.7675 47.8801 32.795 47.8878 32.8244C47.9039 32.8824 47.8968 32.9445 47.8679 32.9974C47.8391 33.0502 47.7908 33.0899 47.7332 33.1078C47.3391 33.2252 46.9281 33.2757 46.5172 33.2572Z" fill="#0C0B0B"/>
<path d="M46.1767 25.3944C46.6405 24.8534 46.2695 24.1681 45.4966 24.0238C44.7237 23.8795 42.9202 23.7043 42.374 24.874C41.6475 26.4198 44.229 26.0488 45.3163 25.853C45.6482 25.8063 45.9529 25.6439 46.1767 25.3944Z" fill="#184655"/>
<path d="M48.5322 25.6729C48.472 25.5375 48.4455 25.3895 48.455 25.2417C48.4644 25.0938 48.5096 24.9504 48.5866 24.8238C48.6636 24.6972 48.7701 24.5911 48.897 24.5146C49.024 24.4381 49.1675 24.3936 49.3155 24.3847C50.0265 24.3023 51.4538 24.2817 51.6909 25.4771C52.0052 27.0744 49.9905 26.4716 49.1454 26.1933C49.0135 26.1521 48.8913 26.0848 48.786 25.9954C48.6806 25.906 48.5943 25.7963 48.5322 25.6729Z" fill="#184655"/>
<path d="M50.5828 22.2409C50.5352 22.3973 50.4462 22.538 50.3252 22.6479C49.2637 23.5497 47.0378 22.9623 45.0025 22.1017C44.4011 21.859 43.7464 21.7788 43.1042 21.8693C42.462 21.9597 41.855 22.2176 41.344 22.617C41.7202 24.6781 39.7312 24.6472 39.994 26.2239C40.1352 27.4094 40.1004 28.6092 39.891 29.7844L38.6749 29.4959C38.5326 29.0026 38.2621 28.5558 37.891 28.2011C37.52 27.8463 37.0615 27.5961 36.5623 27.476C35.0989 27.5945 35.3205 24.5957 36.3047 22.3233C36.3047 22.3233 37.6083 19.4489 42.4313 19.0264C45.9506 18.6709 49.1349 20.2674 50.5828 22.2409Z" fill="#184655"/>
<path d="M44.5644 29.7743C44.5284 30.1196 43.7864 30.3257 42.9105 30.2329C42.0345 30.1402 41.3646 29.7949 41.3904 29.4497C41.4161 29.1045 42.1633 28.8984 43.0393 28.986C43.9152 29.0736 44.5953 29.4549 44.5644 29.7743Z" fill="#F59876"/>
<g opacity="0.8">
<path opacity="0.8" d="M50.9642 31.0417C50.8372 31.0492 50.7099 31.0492 50.5829 31.0417C49.707 30.9541 49.0371 30.5985 49.0371 30.2533C49.0371 29.908 49.8152 29.7019 50.6911 29.7947C50.8052 29.8044 50.9187 29.8199 51.0312 29.8411L50.9642 31.0417Z" fill="#F59876"/>
</g>
<path d="M45.0432 27.9092C44.9968 28.3832 44.7443 28.7439 44.4764 28.7181C44.2084 28.6924 44.0384 28.2853 44.0848 27.8113C44.1311 27.3372 44.3888 26.9765 44.6516 27.0023C44.9143 27.028 45.0947 27.43 45.0432 27.9092Z" fill="#0C0B0B"/>
<path d="M49.7328 28.3838C49.6864 28.8578 49.4288 29.2237 49.166 29.1927C48.9032 29.1618 48.7229 28.7599 48.7744 28.2859C48.826 27.8118 49.0784 27.4511 49.3412 27.4769C49.604 27.5026 49.7843 27.9097 49.7328 28.3838Z" fill="#0C0B0B"/>
<path d="M39.0356 32.3506C39.0098 32.4021 38.2369 33.783 37.2939 34.1128L37.3455 33.1132C37.9685 33.0199 38.5534 32.7559 39.0356 32.3506Z" fill="#0C0B0B"/>
<path d="M38.5048 28.9707C38.5048 28.9707 36.8713 26.2294 35.2792 28.0895C33.9652 29.6354 35.6862 34.1337 38.1028 32.897L38.5048 28.9707Z" fill="#FFC2A9"/>
<path d="M36.2629 31.8918C36.2513 32.008 36.2863 32.124 36.3602 32.2143C36.4341 32.3047 36.541 32.362 36.6571 32.3736C36.7733 32.3852 36.8893 32.3502 36.9796 32.2763C37.07 32.2024 37.1272 32.0955 37.1389 31.9794C37.1431 31.9217 37.1357 31.8638 37.1171 31.809C37.0985 31.7542 37.0691 31.7037 37.0307 31.6605C36.9922 31.6173 36.9456 31.5822 36.8934 31.5573C36.8411 31.5324 36.7844 31.5183 36.7267 31.5157C36.6161 31.5081 36.5068 31.5427 36.4208 31.6125C36.3347 31.6823 36.2783 31.7821 36.2629 31.8918Z" fill="white"/>
<path d="M37.922 32.1031C37.9739 32.1031 38.0238 32.0825 38.0604 32.0457C38.0972 32.009 38.1178 31.9592 38.1178 31.9073C38.116 31.2655 37.9455 30.6354 37.6236 30.0801C37.3017 29.5249 36.8396 29.064 36.2834 28.7435C36.2606 28.7284 36.2348 28.7182 36.2077 28.7136C36.1807 28.7091 36.153 28.7103 36.1264 28.7171C36.0999 28.724 36.0751 28.7363 36.0536 28.7534C36.0321 28.7704 36.0144 28.7918 36.0017 28.8161C35.9891 28.8404 35.9816 28.8671 35.9799 28.8945C35.9781 28.9219 35.9822 28.9493 35.9917 28.975C36.0013 29.0007 36.0162 29.0241 36.0353 29.0437C36.0545 29.0633 36.0776 29.0787 36.1031 29.0888C36.5949 29.3775 37.0031 29.7891 37.2876 30.2833C37.5722 30.7774 37.7234 31.3371 37.7262 31.9073C37.7262 31.9592 37.7468 32.009 37.7835 32.0457C37.8203 32.0825 37.8701 32.1031 37.922 32.1031Z" fill="#0C0B0B"/>
<path d="M36.2112 30.7326C36.2565 30.7381 36.3022 30.7271 36.3401 30.7017C36.6473 30.4805 37.025 30.3796 37.4015 30.4183C37.4501 30.4354 37.5034 30.4331 37.5504 30.412C37.5974 30.391 37.6345 30.3526 37.654 30.305C37.663 30.2806 37.6671 30.2547 37.666 30.2288C37.6649 30.2029 37.6587 30.1774 37.6476 30.1539C37.6366 30.1304 37.621 30.1094 37.6017 30.092C37.5825 30.0745 37.56 30.0611 37.5355 30.0525C36.9635 29.8412 36.2113 30.3204 36.1237 30.3771C36.0909 30.3997 36.0659 30.4317 36.0518 30.4688C36.0377 30.506 36.0352 30.5465 36.0448 30.5851C36.0542 30.6237 36.0753 30.6585 36.105 30.6848C36.1347 30.7112 36.1718 30.7279 36.2112 30.7326Z" fill="#0C0B0B"/>
<path d="M53.9991 28.7437L51.1083 28.5479L51.0723 28.9446L53.9681 29.1404C53.9944 29.1425 54.0207 29.1393 54.0454 29.1311C54.0702 29.1228 54.0933 29.1097 54.1129 29.0924C54.1325 29.0751 54.1485 29.054 54.1603 29.0304C54.1717 29.0068 54.1779 28.9811 54.1794 28.9549C54.182 28.9291 54.1799 28.9029 54.1722 28.878C54.1645 28.8532 54.1516 28.8301 54.1351 28.8103C54.1181 28.7905 54.097 28.7744 54.0738 28.7629C54.0506 28.7515 54.0248 28.7449 53.9991 28.7437Z" fill="white"/>
<path d="M43.0901 30.9234C42.4476 30.854 41.8401 30.5957 41.3441 30.1814C40.8481 29.767 40.486 29.2151 40.3033 28.5952C40.1207 27.9753 40.1257 27.3152 40.3177 26.6981C40.5098 26.081 40.8802 25.5347 41.3824 25.1278C41.8846 24.7211 42.496 24.4722 43.1395 24.4124C43.783 24.3527 44.4298 24.4849 44.9983 24.7923C45.5667 25.0997 46.0314 25.5686 46.3338 26.1398C46.6361 26.711 46.7625 27.3589 46.697 28.0018C46.6533 28.431 46.5252 28.8473 46.32 29.2268C46.1148 29.6063 45.8366 29.9414 45.5013 30.213C45.1661 30.4845 44.7805 30.687 44.3667 30.809C43.9528 30.9309 43.519 30.9698 43.0901 30.9234ZM43.7188 24.8174C43.1521 24.7603 42.5812 24.8724 42.0783 25.1396C41.5753 25.4068 41.1629 25.8171 40.8931 26.3186C40.6233 26.8202 40.5082 27.3905 40.5624 27.9575C40.6166 28.5244 40.8377 29.0625 41.1976 29.5038C41.5576 29.9452 42.0404 30.2699 42.5848 30.4369C43.1293 30.604 43.7111 30.6059 44.2566 30.4424C44.8022 30.2789 45.287 29.9573 45.6498 29.5183C46.0127 29.0793 46.2372 28.5426 46.2951 27.9761C46.3336 27.5994 46.2975 27.219 46.1888 26.8563C46.0801 26.4937 45.901 26.156 45.6617 25.8627C45.4224 25.5693 45.1277 25.326 44.7943 25.1467C44.4609 24.9673 44.0954 24.8554 43.7188 24.8174Z" fill="white"/>
<path d="M50.7732 31.7065C50.132 31.636 49.5261 31.3773 49.0318 30.963C48.5374 30.5488 48.1768 29.9974 47.9953 29.3785C47.8138 28.7595 47.8196 28.1007 48.0119 27.4851C48.2042 26.8694 48.5745 26.3245 49.0761 25.9189C49.5776 25.5134 50.188 25.2654 50.8303 25.2062C51.4726 25.147 52.118 25.2792 52.6854 25.5863C53.2522 25.8933 53.716 26.3614 54.0179 26.9316C54.3193 27.5017 54.4456 28.1484 54.3801 28.79C54.3369 29.2193 54.2096 29.6358 54.0045 30.0153C53.7994 30.3949 53.5207 30.7299 53.1852 31.0012C52.8498 31.2725 52.4638 31.4744 52.05 31.5955C51.6359 31.7166 51.202 31.7543 50.7732 31.7065ZM51.4018 25.5902C50.8352 25.5331 50.2643 25.6451 49.7614 25.9124C49.2584 26.1796 48.846 26.5899 48.5761 27.0914C48.3063 27.593 48.1912 28.1633 48.2455 28.7302C48.2997 29.2971 48.5207 29.8353 48.8807 30.2766C49.2407 30.7179 49.7234 31.0426 50.2679 31.2097C50.8124 31.3768 51.3942 31.3787 51.9397 31.2152C52.4855 31.0516 52.9698 30.7301 53.3331 30.2911C53.6959 29.8521 53.9205 29.3154 53.9782 28.7488C54.0545 27.9885 53.8262 27.2289 53.3429 26.6368C52.8601 26.0447 52.162 25.6683 51.4018 25.5902Z" fill="white"/>
<path d="M36.2785 27.6209C36.2565 27.6262 36.2335 27.6262 36.2115 27.6209C36.1887 27.61 36.1682 27.5946 36.1514 27.5756C36.1347 27.5566 36.1218 27.5345 36.1137 27.5105C36.1055 27.4865 36.1022 27.4612 36.104 27.4359C36.1057 27.4106 36.1125 27.3859 36.1239 27.3633C37.2112 25.2095 40.5037 26.7038 40.5346 26.7192C40.5605 26.7279 40.5843 26.742 40.6044 26.7604C40.6245 26.7789 40.6406 26.8014 40.6515 26.8264C40.6624 26.8514 40.668 26.8785 40.6678 26.9058C40.6677 26.9331 40.6618 26.9601 40.6506 26.985C40.6395 27.0099 40.6232 27.0322 40.6029 27.0504C40.5825 27.0687 40.5586 27.0825 40.5326 27.0909C40.5067 27.0994 40.4793 27.1023 40.4521 27.0995C40.4249 27.0968 40.3986 27.0883 40.3749 27.0748C40.344 27.0748 37.3863 25.7196 36.4692 27.5385C36.4483 27.5687 36.4193 27.5925 36.3856 27.6071C36.3519 27.6217 36.3148 27.6265 36.2785 27.6209Z" fill="white"/>
<path d="M48.1195 27.6409C48.0691 27.6335 48.0231 27.6078 47.9906 27.5687C47.5114 26.971 46.6561 27.3472 46.6458 27.3523C46.5993 27.3728 46.5466 27.374 46.4992 27.3557C46.4519 27.3373 46.4138 27.3009 46.3933 27.2544C46.3728 27.2079 46.3715 27.1552 46.3899 27.1079C46.4083 27.0606 46.4447 27.0224 46.4912 27.0019C46.7871 26.8567 47.1217 26.8098 47.4462 26.8682C47.7706 26.9266 48.0679 27.0872 48.2946 27.3265C48.3264 27.367 48.3409 27.4183 48.3351 27.4694C48.3294 27.5205 48.3037 27.5673 48.2637 27.5996C48.2225 27.631 48.171 27.6458 48.1195 27.6409Z" fill="white"/>
<path d="M36.6033 39.5029C36.6033 39.5029 41.1067 42.8522 42.4207 42.8522C41.2504 44.0799 39.689 44.8618 38.0048 45.0627C34.4649 45.3976 28.498 44.6041 28.498 44.6041C28.498 44.6041 32.9088 41.1621 36.6033 39.5029Z" fill="#6DAEF7"/>
<path d="M35.7991 46.938C32.1561 46.938 29.451 44.475 29.3376 44.3617C29.3126 44.3387 29.2923 44.311 29.278 44.2801C29.2637 44.2493 29.2556 44.2159 29.2541 44.1819C29.2527 44.148 29.258 44.1141 29.2697 44.0821C29.2813 44.0502 29.2992 44.0209 29.3222 43.9958C29.3452 43.9708 29.3729 43.9505 29.4037 43.9362C29.4345 43.9219 29.4679 43.9137 29.5019 43.9123C29.5358 43.9109 29.5697 43.9162 29.6017 43.9279C29.6336 43.9395 29.663 43.9574 29.688 43.9804C29.7189 44.0061 32.4705 46.5103 36.0104 46.4073C36.0792 46.4057 36.1458 46.4315 36.196 46.4789C36.2461 46.5258 36.2756 46.5907 36.2783 46.6598C36.2797 46.6938 36.2742 46.7283 36.2622 46.7602C36.2502 46.7927 36.2319 46.8221 36.2084 46.8468C36.1849 46.8715 36.1566 46.8916 36.1253 46.9055C36.0939 46.9195 36.0602 46.9272 36.0258 46.9277L35.7991 46.938Z" fill="#5892E6"/>
<path d="M45.966 39.6162C45.6672 40.3912 45.1908 41.0853 44.5751 41.6428C43.9594 42.2002 43.2216 42.6057 42.4209 42.8264C42.6017 43.5217 43.0408 44.122 43.6487 44.5051C44.2566 44.888 44.9876 45.0245 45.6929 44.8874C47.2511 44.6942 48.7129 44.0291 49.882 42.9809C49.882 42.9809 48.0889 39.6214 45.966 39.6162Z" fill="#6DAEF7"/>
<path d="M42.256 86.954C42.3043 86.954 42.3507 86.935 42.3854 86.9015C42.42 86.868 42.4401 86.8221 42.4415 86.7737C43.3174 69.2545 38.5203 42.9756 38.4739 42.718C38.4696 42.6934 38.4604 42.67 38.4468 42.649C38.4332 42.6281 38.4156 42.6101 38.3949 42.5962C38.3742 42.5822 38.3509 42.5726 38.3264 42.5678C38.3019 42.5631 38.2767 42.5633 38.2523 42.5686C38.2276 42.5729 38.204 42.5821 38.1828 42.5956C38.1617 42.6091 38.1434 42.6266 38.129 42.6472C38.1146 42.6678 38.1045 42.691 38.0991 42.7156C38.0938 42.7401 38.0933 42.7654 38.0977 42.7901C38.1493 43.0529 42.9361 69.2905 42.0653 86.7531C42.0639 86.7783 42.0675 86.8031 42.0758 86.8268C42.0841 86.8505 42.0971 86.8721 42.1138 86.8912C42.1306 86.9097 42.1508 86.9247 42.1734 86.9355C42.196 86.9463 42.2206 86.9525 42.2457 86.954H42.256Z" fill="white"/>
<path d="M53.9575 85.8203C53.9828 85.8198 54.007 85.8141 54.0302 85.8038C54.0529 85.7935 54.0735 85.7791 54.091 85.761C54.108 85.7425 54.1214 85.7214 54.1307 85.6977C54.1394 85.6745 54.1436 85.6497 54.143 85.6245C53.5865 64.4983 46.486 42.8569 46.4139 42.656C46.4063 42.6325 46.3942 42.6107 46.3781 42.592C46.362 42.5733 46.3424 42.558 46.3203 42.547C46.2982 42.5359 46.2742 42.5294 46.2495 42.5277C46.2249 42.5261 46.2002 42.5294 46.1769 42.5375C46.1293 42.5529 46.0897 42.5863 46.0666 42.6307C46.0434 42.675 46.0386 42.7267 46.0532 42.7745C46.1253 42.9909 53.2104 64.5447 53.7823 85.6348C53.7844 85.6817 53.8035 85.726 53.8354 85.76C53.8679 85.794 53.9112 85.8157 53.9575 85.8203Z" fill="white"/>
<path d="M36.9075 96.1565C36.9075 96.1565 25.8447 97.5941 18.466 92.8227C14.2768 90.1175 11.2522 85.4131 12.1539 77.3131C12.1539 77.1894 12.1797 77.0657 12.1951 76.9421C14.3696 59.0467 22.6191 49.4575 25.5355 46.5668C25.9546 46.1448 26.4658 45.8253 27.0291 45.6342C27.5923 45.443 28.1922 45.3848 28.7817 45.4641C32.1052 45.9794 34.1766 50.8487 27.8645 73.6598C25.4891 84.903 36.3717 86.2685 36.3717 86.2685L36.9075 96.1565Z" fill="#6DAEF7"/>
<path d="M27.5343 76.2361C27.5001 76.2407 27.4654 76.2407 27.4313 76.2361C27.3886 76.2207 27.3495 76.1969 27.316 76.166C27.2825 76.1356 27.2555 76.0985 27.2363 76.0573C27.2172 76.0161 27.2063 75.9718 27.2044 75.9264C27.2025 75.8811 27.2096 75.8357 27.2252 75.793C27.2767 75.659 32.1769 62.3289 32.5376 55.1821C32.5424 55.0904 32.5833 55.0049 32.6514 54.9431C32.7196 54.8817 32.8093 54.8503 32.9009 54.8549C32.9925 54.8596 33.0783 54.9008 33.1397 54.9688C33.2011 55.0368 33.2328 55.1265 33.2281 55.2182C32.8622 62.432 27.9208 75.8806 27.8744 76.0145C27.8471 76.0815 27.7999 76.1392 27.7391 76.1784C27.6783 76.2181 27.6068 76.2382 27.5343 76.2361Z" fill="#5892E6"/>
<path d="M32.0899 60.8453C32.027 60.8448 31.9659 60.8247 31.9147 60.7886C31.8766 60.7639 31.8439 60.7314 31.8185 60.6938C31.7931 60.6557 31.7756 60.6134 31.7669 60.5686C31.7583 60.5238 31.7587 60.4779 31.7682 60.4336C31.7776 60.3888 31.7959 60.3465 31.8219 60.3094L33.9654 57.1251C34.0167 57.0509 34.0949 56.9993 34.1836 56.9818C34.2722 56.9648 34.3641 56.9829 34.4395 57.0323C34.5151 57.0839 34.5676 57.1627 34.5859 57.2518C34.6042 57.3415 34.5868 57.4347 34.5374 57.5115L32.3939 60.6959C32.3603 60.7448 32.3147 60.7845 32.2614 60.8103C32.2082 60.8366 32.1491 60.8484 32.0899 60.8453Z" fill="#5892E6"/>
<path d="M34.5476 96.8006C34.48 96.7981 34.4147 96.7759 34.3597 96.7362C34.3048 96.6971 34.2626 96.6425 34.2384 96.5791C33.0945 93.5648 33.7231 85.2432 33.7231 84.867C33.731 84.7758 33.7742 84.6913 33.8435 84.6315C33.9129 84.5723 34.0028 84.5419 34.0941 84.5475C34.1393 84.5506 34.1834 84.563 34.2238 84.5836C34.2642 84.6042 34.3 84.6326 34.3293 84.6671C34.3586 84.7016 34.3807 84.7418 34.3943 84.7846C34.4079 84.8278 34.4127 84.8732 34.4084 84.9185C34.4084 85.0061 33.7747 93.4669 34.8619 96.3317C34.8783 96.374 34.8861 96.4193 34.8849 96.4642C34.8837 96.5095 34.8734 96.5543 34.8547 96.5956C34.836 96.6368 34.8092 96.6739 34.7759 96.7048C34.7426 96.7357 34.7035 96.7594 34.6609 96.7749C34.6252 96.7909 34.5867 96.7996 34.5476 96.8006Z" fill="#5892E6"/>
<path d="M37.2416 96.0691C37.2303 96.0253 37.2103 95.9841 37.1828 95.948C37.1552 95.9119 37.1208 95.8815 37.0814 95.8589C37.042 95.8362 36.9985 95.8218 36.9535 95.8166C36.9084 95.8109 36.8627 95.8145 36.8191 95.8269C33.6101 96.5272 30.2828 96.4777 27.0959 95.6826C27.0411 95.6687 26.9836 95.6682 26.9286 95.6816C26.8736 95.695 26.8228 95.7218 26.7806 95.7594C26.7383 95.797 26.7059 95.8444 26.6864 95.8975C26.6668 95.9506 26.6606 96.0078 26.6682 96.0639C26.6777 96.1304 26.7068 96.1922 26.7518 96.2417C26.7968 96.2912 26.8556 96.3262 26.9207 96.3422C28.3656 96.7235 29.8484 96.943 31.3417 96.9966C33.2458 97.0857 35.1529 96.9121 37.0097 96.4813C37.0943 96.4561 37.1658 96.3989 37.2091 96.3221C37.2523 96.2453 37.264 96.1546 37.2416 96.0691Z" fill="#5892E6"/>
<path d="M34.2325 85.2482L33.7946 85.2173C32.326 85.0627 30.1877 84.3259 28.4718 81.7134C28.4415 81.6763 28.4193 81.6331 28.4067 81.5867C28.394 81.5403 28.3912 81.4914 28.3984 81.444C28.4056 81.3966 28.4226 81.3512 28.4485 81.3105C28.4743 81.2698 28.5083 81.2353 28.5483 81.2085C28.5883 81.1817 28.6334 81.1636 28.6807 81.1554C28.7281 81.1472 28.7767 81.1492 28.8233 81.1606C28.87 81.1724 28.9137 81.1935 28.9516 81.2234C28.9896 81.2528 29.021 81.2899 29.0438 81.3321C32.0735 85.8923 36.3245 84.2847 36.3709 84.2641C36.4563 84.2306 36.5516 84.2326 36.6356 84.2692C36.7197 84.3058 36.7857 84.3743 36.8192 84.4599C36.8527 84.5454 36.8509 84.6407 36.8141 84.7247C36.7774 84.8087 36.7088 84.8747 36.6234 84.9081C35.8547 85.1699 35.0437 85.2853 34.2325 85.2482Z" fill="#5892E6"/>
<path d="M18.466 92.833C14.2768 90.1278 11.2522 85.4233 12.1539 77.3232C15.0394 80.7756 19.6408 87.3402 18.466 92.833Z" fill="#5892E6"/>
<rect x="68" y="38" width="22" height="12" rx="2" fill="#FFF600"/>
<path d="M87 53.619V49.5C87 49.2239 86.7761 49 86.5 49H83.0675C82.6436 49 82.412 49.4944 82.6834 49.8201L86.1159 53.9391C86.4153 54.2983 87 54.0866 87 53.619Z" fill="#FFF600"/>
<path d="M74.4847 42.9115C74.4847 43.447 74.1872 43.7955 73.5242 43.7955H72.5297V42.053H73.5242C74.1872 42.053 74.4847 42.3845 74.4847 42.9115ZM71.3397 41.067V47H72.5297V44.688H73.0907L74.3997 47H75.7767L74.3572 44.5945C75.3092 44.3395 75.7087 43.6085 75.7087 42.886C75.7087 41.8915 74.9947 41.067 73.5667 41.067H71.3397ZM80.2275 41.0585H76.785V47H80.2275V46.031H77.975V44.4585H79.9725V43.515H77.975V42.0275H80.2275V41.0585ZM84.0459 40.9905C82.3289 40.9905 81.0199 42.2485 81.0199 44.025C81.0199 45.8015 82.3289 47.051 84.0544 47.051C85.6354 47.051 86.7149 45.946 86.9529 44.739V43.702H83.7399V44.6115H85.7799C85.6014 45.453 85.0149 45.98 84.0969 45.98C82.9919 45.98 82.2439 45.232 82.2439 44.025C82.2439 42.8435 82.9834 42.087 84.0459 42.087C84.6749 42.087 85.1679 42.3505 85.4399 42.852H86.8084C86.4259 41.662 85.3719 40.9905 84.0459 40.9905Z" fill="black"/>
</g>
</svg>
