<svg width="24" height="20" viewBox="0 0 24 20" fill="none" xmlns="http://www.w3.org/2000/svg">
<path opacity="0.8" fill-rule="evenodd" clip-rule="evenodd" d="M8.93289 0.815146C8.93289 0.364783 8.56089 0 8.10271 0H8.10162L6.32453 0.00106975C3.93435 0.00320924 1.98926 1.91271 1.98926 4.25759V6.28583C1.98926 6.73512 2.36126 7.10097 2.81944 7.10097C3.27762 7.10097 3.65071 6.73512 3.65071 6.28583V4.25759C3.65071 2.81022 4.85071 1.63243 6.32562 1.63029L8.10271 1.62922C8.56198 1.62922 8.93289 1.26444 8.93289 0.815146ZM17.6649 0.00053267H15.9271C15.4689 0.00053267 15.0969 0.365316 15.0969 0.815679C15.0969 1.26497 15.4689 1.62869 15.9271 1.62869H17.6649C19.1453 1.62869 20.3497 2.80969 20.3497 4.26133V6.28636C20.3497 6.73565 20.7217 7.10151 21.1799 7.10151C21.6391 7.10151 22.01 6.73565 22.01 6.28636V4.26133C22.01 1.9111 20.0617 0.00053267 17.6649 0.00053267ZM8.98673 4.08292H15.0129C15.6729 4.08292 16.3067 4.34287 16.7682 4.80607C17.2329 5.27355 17.4904 5.90149 17.4893 6.5551V7.91368C17.4838 8.07307 17.354 8.20251 17.1915 8.20679H6.80601C6.64455 8.20144 6.51473 8.072 6.51146 7.91368V6.5551C6.49946 5.20187 7.60782 4.09683 8.98673 4.08292Z" fill="white"/>
<path d="M23.1698 9.86279H0.831273C0.373091 9.86279 0 10.2276 0 10.6779C0 11.1272 0.373091 11.4909 0.831273 11.4909H1.98873V15.3784C1.98873 17.7233 3.93491 19.6328 6.32509 19.6349L8.10218 19.636C8.56145 19.636 8.93236 19.2712 8.93345 18.8208C8.93345 18.3716 8.56145 18.0068 8.10327 18.0068L6.32727 18.0057C4.85127 18.0036 3.65018 16.8258 3.65018 15.3784V11.4909H6.51164V12.5725C6.50073 13.9257 7.608 15.0318 8.98691 15.0446H15.0131C16.3931 15.0318 17.5004 13.9257 17.4895 12.5725V11.4909H20.3509V15.3741C20.3509 16.8268 19.1465 18.0068 17.6662 18.0068H15.9284C15.4691 18.0068 15.0971 18.3716 15.0971 18.8208C15.0971 19.2712 15.4691 19.636 15.9284 19.636H17.6662C20.0618 19.636 22.0113 17.7254 22.0113 15.3741V11.4909H23.1698C23.628 11.4909 24 11.1272 24 10.6779C24 10.2276 23.628 9.86279 23.1698 9.86279Z" fill="white"/>
</svg>
